<svg xmlns="http://www.w3.org/2000/svg" viewBox="0 0 900 1080" width="900" height="1080" style="border-radius:18px;overflow:hidden">
  <defs>
    <!-- Soft Dreamy Sky -->
    <linearGradient id="ghSky" x1="0" y1="0" x2="0" y2="1">
      <stop offset="0%"   stop-color="#0f1c3f"/>
      <stop offset="50%"  stop-color="#1d2d50"/>
      <stop offset="100%" stop-color="#133b5c"/>
    </linearGradient>

    <!-- Soft glow for dandelion/fireflies -->
    <filter id="glowSoft" x="-50%" y="-50%" width="200%" height="200%">
      <feGaussianBlur stdDeviation="3" result="blur"/>
      <feMerge>
        <feMergeNode in="blur"/>
        <feMergeNode in="SourceGraphic"/>
      </feMerge>
    </filter>
  </defs>

  <!-- ═══ SKY BACKDROP ═══ -->
  <rect width="900" height="1080" fill="url(#ghSky)"/>
  
  <!-- Dreamy floating clouds -->
  
    <g opacity="0.25" style="animation: floatCloud 40s linear infinite; transform-origin: left; transform: translate(422px, 60px) scale(0.70);">
      <path d="M 0,40 Q 20,10 50,20 Q 80,-5 120,15 Q 160,0 180,30 Q 210,40 190,60 Q 190,80 150,80 L 30,80 Q -15,70 0,40 Z" fill="#ffffff" />
    </g>
    <g opacity="0.40" style="animation: floatCloud 55s linear infinite; transform-origin: left; transform: translate(344px, 105px) scale(0.90);">
      <path d="M 0,40 Q 20,10 50,20 Q 80,-5 120,15 Q 160,0 180,30 Q 210,40 190,60 Q 190,80 150,80 L 30,80 Q -15,70 0,40 Z" fill="#ffffff" />
    </g>
    <g opacity="0.55" style="animation: floatCloud 70s linear infinite; transform-origin: left; transform: translate(266px, 150px) scale(1.10);">
      <path d="M 0,40 Q 20,10 50,20 Q 80,-5 120,15 Q 160,0 180,30 Q 210,40 190,60 Q 190,80 150,80 L 30,80 Q -15,70 0,40 Z" fill="#ffffff" />
    </g>
    <g opacity="0.70" style="animation: floatCloud 85s linear infinite; transform-origin: left; transform: translate(188px, 195px) scale(0.70);">
      <path d="M 0,40 Q 20,10 50,20 Q 80,-5 120,15 Q 160,0 180,30 Q 210,40 190,60 Q 190,80 150,80 L 30,80 Q -15,70 0,40 Z" fill="#ffffff" />
    </g>
  
  <!-- Floating fireflies or dandelion seeds -->
  <circle class="floater" cx="630.0" cy="174.0" r="3" fill="#e9d8a6" filter="url(#glowSoft)" style="animation-delay:0.0s"/><circle class="floater" cx="216.0" cy="156.0" r="1.8" fill="#e9d8a6" filter="url(#glowSoft)" style="animation-delay:0.4s"/><circle class="floater" cx="702.0" cy="138.0" r="1.8" fill="#e9d8a6" filter="url(#glowSoft)" style="animation-delay:0.8s"/><circle class="floater" cx="288.0" cy="120.0" r="1.8" fill="#e9d8a6" filter="url(#glowSoft)" style="animation-delay:1.2s"/><circle class="floater" cx="774.0" cy="282.0" r="1.8" fill="#e9d8a6" filter="url(#glowSoft)" style="animation-delay:1.6s"/><circle class="floater" cx="360.0" cy="264.0" r="3" fill="#e9d8a6" filter="url(#glowSoft)" style="animation-delay:2.0s"/><circle class="floater" cx="846.0" cy="246.0" r="1.8" fill="#e9d8a6" filter="url(#glowSoft)" style="animation-delay:2.4s"/><circle class="floater" cx="432.0" cy="228.0" r="1.8" fill="#e9d8a6" filter="url(#glowSoft)" style="animation-delay:2.8s"/><circle class="floater" cx="18.0" cy="210.0" r="1.8" fill="#e9d8a6" filter="url(#glowSoft)" style="animation-delay:3.2s"/><circle class="floater" cx="504.0" cy="192.0" r="1.8" fill="#e9d8a6" filter="url(#glowSoft)" style="animation-delay:3.6s"/><circle class="floater" cx="90.0" cy="174.0" r="3" fill="#e9d8a6" filter="url(#glowSoft)" style="animation-delay:4.0s"/><circle class="floater" cx="576.0" cy="156.0" r="1.8" fill="#e9d8a6" filter="url(#glowSoft)" style="animation-delay:4.4s"/><circle class="floater" cx="162.0" cy="138.0" r="1.8" fill="#e9d8a6" filter="url(#glowSoft)" style="animation-delay:4.8s"/><circle class="floater" cx="648.0" cy="120.0" r="1.8" fill="#e9d8a6" filter="url(#glowSoft)" style="animation-delay:5.2s"/><circle class="floater" cx="234.0" cy="282.0" r="1.8" fill="#e9d8a6" filter="url(#glowSoft)" style="animation-delay:5.6s"/><circle class="floater" cx="720.0" cy="264.0" r="3" fill="#e9d8a6" filter="url(#glowSoft)" style="animation-delay:0.0s"/><circle class="floater" cx="306.0" cy="246.0" r="1.8" fill="#e9d8a6" filter="url(#glowSoft)" style="animation-delay:0.4s"/><circle class="floater" cx="792.0" cy="228.0" r="1.8" fill="#e9d8a6" filter="url(#glowSoft)" style="animation-delay:0.8s"/><circle class="floater" cx="378.0" cy="210.0" r="1.8" fill="#e9d8a6" filter="url(#glowSoft)" style="animation-delay:1.2s"/><circle class="floater" cx="864.0" cy="192.0" r="1.8" fill="#e9d8a6" filter="url(#glowSoft)" style="animation-delay:1.6s"/><circle class="floater" cx="450.0" cy="174.0" r="3" fill="#e9d8a6" filter="url(#glowSoft)" style="animation-delay:2.0s"/><circle class="floater" cx="36.0" cy="156.0" r="1.8" fill="#e9d8a6" filter="url(#glowSoft)" style="animation-delay:2.4s"/><circle class="floater" cx="522.0" cy="138.0" r="1.8" fill="#e9d8a6" filter="url(#glowSoft)" style="animation-delay:2.8s"/><circle class="floater" cx="108.0" cy="120.0" r="1.8" fill="#e9d8a6" filter="url(#glowSoft)" style="animation-delay:3.2s"/><circle class="floater" cx="594.0" cy="282.0" r="1.8" fill="#e9d8a6" filter="url(#glowSoft)" style="animation-delay:3.6s"/>

  <!-- ═══ HORIZON GREEN HILLS ═══ -->
  
    <!-- Distant Hill -->
    <path d="M -100,280 Q 250,190 600,250 T 1000,270 L 1000,320 L -100,320 Z" fill="#2d4a34" opacity="0.75" />
    <!-- Midground Hill with simple tree shapes -->
    <path d="M -50,290 Q 350,230 750,260 T 1050,295 L 1050,320 L -50,320 Z" fill="#3c6346" />
    <!-- Foreground Grass Slope -->
    <path d="M -20,300 Q 200,260 500,295 T 920,290 L 920,320 L -20,320 Z" fill="#4d7c57" />
  
  <rect x="0" y="306" width="900" height="10" fill="#4d7c57" />

  <!-- ═══ HERO HEADER ═══ -->
  <!-- Hand-drawn style soft board behind title -->
  <g transform="translate(150, 336)">
    <rect x="1" y="2" width="600" height="114" rx="16" fill="rgba(40, 30, 20, 0.15)"/>
    <rect x="0" y="0" width="600" height="114" rx="16" fill="rgba(255, 252, 242, 0.92)" stroke="#4a3b32" stroke-width="2"/>
    <rect x="4" y="4" width="592" height="106" rx="12" fill="none" stroke="#c9a054" stroke-width="1" opacity="0.3" />
    
    <!-- Decorative vine framing the header -->
    <path d="M 20,15 Q 120,5 300,10 T 580,15" fill="none" stroke="#3a5f43" stroke-width="1.2" />
    <path d="M 20,95 Q 120,105 300,100 T 580,95" fill="none" stroke="#3a5f43" stroke-width="1.2" />

    <text x="300" y="52" font-family="'Outfit', sans-serif" font-size="34" fill="#4a3b32" text-anchor="middle" font-weight="bold">Hi, I'm Dasmat 🌿</text>
    <text x="300" y="80" font-family="sans-serif" font-size="13.5" fill="#4a3b32" opacity="0.75" text-anchor="middle" letter-spacing="0.5">
      DevOps Explorer  ·  Full-Stack Software Developer  ·  Open Source Contributor
    </text>
    
    
    <g transform="translate(14,14) rotate(45) scale(0.8)">
      <path d="M0,0 Q-10,-15 0,-25 Q10,-15 0,0" fill="#5b8c5a" />
      <path d="M-4,-8 Q-12,-16 -6,-22" fill="#7ba879" opacity="0.6" />
      <path d="M0,0 L0,-23" stroke="#2d4a34" stroke-width="0.8" />
    </g>
  
    
    <g transform="translate(586,14) rotate(-45) scale(0.8)">
      <path d="M0,0 Q-10,-15 0,-25 Q10,-15 0,0" fill="#5b8c5a" />
      <path d="M-4,-8 Q-12,-16 -6,-22" fill="#7ba879" opacity="0.6" />
      <path d="M0,0 L0,-23" stroke="#2d4a34" stroke-width="0.8" />
    </g>
  
  </g>

  <!-- ═══ ABOUT ME PANEL y=468 h=118 ═══ -->
  
<g class="panel">
  <!-- Dropshadow -->
  <rect x="22" y="471" width="860" height="118" rx="14" fill="rgba(40,30,20,0.15)"/>
  <!-- Main Box -->
  <rect x="20" y="468" width="860" height="118" rx="14" fill="rgba(255, 252, 242, 0.92)" stroke="#4a3b32" stroke-width="2"/>
  <rect x="24" y="472" width="852" height="110" rx="10" fill="none" stroke="#c9a054" stroke-width="1" opacity="0.4" />
  
  <!-- Ivy Corner Decorations -->
  
    <g transform="translate(30,478) rotate(-45) scale(0.8)">
      <path d="M0,0 Q-10,-15 0,-25 Q10,-15 0,0" fill="#5b8c5a" />
      <path d="M-4,-8 Q-12,-16 -6,-22" fill="#7ba879" opacity="0.6" />
      <path d="M0,0 L0,-23" stroke="#2d4a34" stroke-width="0.8" />
    </g>
  
  
    <g transform="translate(870,478) rotate(45) scale(0.8)">
      <path d="M0,0 Q-10,-15 0,-25 Q10,-15 0,0" fill="#5b8c5a" />
      <path d="M-4,-8 Q-12,-16 -6,-22" fill="#7ba879" opacity="0.6" />
      <path d="M0,0 L0,-23" stroke="#2d4a34" stroke-width="0.8" />
    </g>
  
  
    <g transform="translate(30,576) rotate(-135) scale(0.8)">
      <path d="M0,0 Q-10,-15 0,-25 Q10,-15 0,0" fill="#5b8c5a" />
      <path d="M-4,-8 Q-12,-16 -6,-22" fill="#7ba879" opacity="0.6" />
      <path d="M0,0 L0,-23" stroke="#2d4a34" stroke-width="0.8" />
    </g>
  
  
    <g transform="translate(870,576) rotate(135) scale(0.8)">
      <path d="M0,0 Q-10,-15 0,-25 Q10,-15 0,0" fill="#5b8c5a" />
      <path d="M-4,-8 Q-12,-16 -6,-22" fill="#7ba879" opacity="0.6" />
      <path d="M0,0 L0,-23" stroke="#2d4a34" stroke-width="0.8" />
    </g>
  

  <!-- Label badge -->
  <rect x="50" y="456" width="189" height="24" rx="12" fill="#3a5f43" stroke="#4a3b32" stroke-width="1.5"/>
  <text x="62" y="472" font-family="'Outfit', 'Inter', sans-serif" font-size="11.5" fill="#fcfbf7" font-weight="bold" letter-spacing="1.5">🌿  ABOUT THE TRAVELER</text>
</g>
  <text x="40" y="505" font-family="sans-serif" font-size="13.5" fill="#4a3b32">
    🌱  <tspan font-weight="bold" fill="#3a5f43">Core Interests:</tspan> Infrastructure automation, Cloud-Native scaling, Self-healing architectures
  </text>
  <text x="40" y="531" font-family="sans-serif" font-size="13.5" fill="#4a3b32">
    🍃  <tspan font-weight="bold" fill="#3a5f43">Contributing To:</tspan> Kubernetes SIGs, Node.js Core, Express.js, Backstage Ecosystem
  </text>
  <text x="40" y="557" font-family="sans-serif" font-size="13.5" fill="#4a3b32">
    📬  <tspan font-weight="bold" fill="#3a5f43">Contact:</tspan> mey37056@gmail.com   ·   ⚡  Experiments daily with automated recovery pipelines
  </text>

  <!-- ═══ WORLD STATE BAR y=600 h=50 ═══ -->
  
<g class="panel">
  <!-- Dropshadow -->
  <rect x="22" y="603" width="860" height="50" rx="14" fill="rgba(40,30,20,0.15)"/>
  <!-- Main Box -->
  <rect x="20" y="600" width="860" height="50" rx="14" fill="rgba(255, 252, 242, 0.92)" stroke="#4a3b32" stroke-width="2"/>
  <rect x="24" y="604" width="852" height="42" rx="10" fill="none" stroke="#c9a054" stroke-width="1" opacity="0.4" />
  
  <!-- Ivy Corner Decorations -->
  
    <g transform="translate(30,610) rotate(-45) scale(0.8)">
      <path d="M0,0 Q-10,-15 0,-25 Q10,-15 0,0" fill="#5b8c5a" />
      <path d="M-4,-8 Q-12,-16 -6,-22" fill="#7ba879" opacity="0.6" />
      <path d="M0,0 L0,-23" stroke="#2d4a34" stroke-width="0.8" />
    </g>
  
  
    <g transform="translate(870,610) rotate(45) scale(0.8)">
      <path d="M0,0 Q-10,-15 0,-25 Q10,-15 0,0" fill="#5b8c5a" />
      <path d="M-4,-8 Q-12,-16 -6,-22" fill="#7ba879" opacity="0.6" />
      <path d="M0,0 L0,-23" stroke="#2d4a34" stroke-width="0.8" />
    </g>
  
  
    <g transform="translate(30,640) rotate(-135) scale(0.8)">
      <path d="M0,0 Q-10,-15 0,-25 Q10,-15 0,0" fill="#5b8c5a" />
      <path d="M-4,-8 Q-12,-16 -6,-22" fill="#7ba879" opacity="0.6" />
      <path d="M0,0 L0,-23" stroke="#2d4a34" stroke-width="0.8" />
    </g>
  
  
    <g transform="translate(870,640) rotate(135) scale(0.8)">
      <path d="M0,0 Q-10,-15 0,-25 Q10,-15 0,0" fill="#5b8c5a" />
      <path d="M-4,-8 Q-12,-16 -6,-22" fill="#7ba879" opacity="0.6" />
      <path d="M0,0 L0,-23" stroke="#2d4a34" stroke-width="0.8" />
    </g>
  

  <!-- Label badge -->
  <rect x="50" y="588" width="226.5" height="24" rx="12" fill="#3a5f43" stroke="#4a3b32" stroke-width="1.5"/>
  <text x="62" y="604" font-family="'Outfit', 'Inter', sans-serif" font-size="11.5" fill="#fcfbf7" font-weight="bold" letter-spacing="1.5">🏡  CURRENT ENVIRONMENT LOG</text>
</g>
  <text x="450" y="632" font-family="sans-serif" font-size="13.5" fill="#4a3b32" text-anchor="middle" font-weight="bold">
    🌳 Biome: <tspan fill="#3a5f43">JS Kingdom</tspan>
    <tspan dx="15" fill="#4a3b32" opacity="0.3">|</tspan>
    <tspan dx="15">🕰️ Time: <tspan fill="#3a5f43">night</tspan></tspan>
    <tspan dx="15" fill="#4a3b32" opacity="0.3">|</tspan>
    <tspan dx="15">🌦️ Weather: <tspan fill="#3a5f43">rain</tspan></tspan>
    <tspan dx="15" fill="#4a3b32" opacity="0.3">|</tspan>
    <tspan dx="15">🎒 Streak: <tspan fill="#3a5f43">10 days</tspan></tspan>
  </text>

  <!-- ═══ TECH STACK PANEL y=664 h=118 ═══ -->
  
<g class="panel">
  <!-- Dropshadow -->
  <rect x="22" y="667" width="860" height="118" rx="14" fill="rgba(40,30,20,0.15)"/>
  <!-- Main Box -->
  <rect x="20" y="664" width="860" height="118" rx="14" fill="rgba(255, 252, 242, 0.92)" stroke="#4a3b32" stroke-width="2"/>
  <rect x="24" y="668" width="852" height="110" rx="10" fill="none" stroke="#c9a054" stroke-width="1" opacity="0.4" />
  
  <!-- Ivy Corner Decorations -->
  
    <g transform="translate(30,674) rotate(-45) scale(0.8)">
      <path d="M0,0 Q-10,-15 0,-25 Q10,-15 0,0" fill="#5b8c5a" />
      <path d="M-4,-8 Q-12,-16 -6,-22" fill="#7ba879" opacity="0.6" />
      <path d="M0,0 L0,-23" stroke="#2d4a34" stroke-width="0.8" />
    </g>
  
  
    <g transform="translate(870,674) rotate(45) scale(0.8)">
      <path d="M0,0 Q-10,-15 0,-25 Q10,-15 0,0" fill="#5b8c5a" />
      <path d="M-4,-8 Q-12,-16 -6,-22" fill="#7ba879" opacity="0.6" />
      <path d="M0,0 L0,-23" stroke="#2d4a34" stroke-width="0.8" />
    </g>
  
  
    <g transform="translate(30,772) rotate(-135) scale(0.8)">
      <path d="M0,0 Q-10,-15 0,-25 Q10,-15 0,0" fill="#5b8c5a" />
      <path d="M-4,-8 Q-12,-16 -6,-22" fill="#7ba879" opacity="0.6" />
      <path d="M0,0 L0,-23" stroke="#2d4a34" stroke-width="0.8" />
    </g>
  
  
    <g transform="translate(870,772) rotate(135) scale(0.8)">
      <path d="M0,0 Q-10,-15 0,-25 Q10,-15 0,0" fill="#5b8c5a" />
      <path d="M-4,-8 Q-12,-16 -6,-22" fill="#7ba879" opacity="0.6" />
      <path d="M0,0 L0,-23" stroke="#2d4a34" stroke-width="0.8" />
    </g>
  

  <!-- Label badge -->
  <rect x="50" y="652" width="234" height="24" rx="12" fill="#3a5f43" stroke="#4a3b32" stroke-width="1.5"/>
  <text x="62" y="668" font-family="'Outfit', 'Inter', sans-serif" font-size="11.5" fill="#fcfbf7" font-weight="bold" letter-spacing="1.5">🎒  PACKED GEAR (TECH STACK)</text>
</g>
  
    <rect x="32" y="694" width="134" height="28" rx="14" fill="#e8f0fe" stroke="#4a3b32" stroke-width="1" />
    <text x="99" y="712" font-family="sans-serif" font-size="11.5" fill="#1a73e8" font-weight="bold" text-anchor="middle">Kubernetes</text>
    
    <rect x="172" y="694" width="134" height="28" rx="14" fill="#e1f5fe" stroke="#4a3b32" stroke-width="1" />
    <text x="239" y="712" font-family="sans-serif" font-size="11.5" fill="#0288d1" font-weight="bold" text-anchor="middle">Docker</text>
    
    <rect x="312" y="694" width="134" height="28" rx="14" fill="#e8f4fd" stroke="#4a3b32" stroke-width="1" />
    <text x="379" y="712" font-family="sans-serif" font-size="11.5" fill="#1976d2" font-weight="bold" text-anchor="middle">TypeScript</text>
    
    <rect x="452" y="694" width="134" height="28" rx="14" fill="#e0f7fa" stroke="#4a3b32" stroke-width="1" />
    <text x="519" y="712" font-family="sans-serif" font-size="11.5" fill="#0097a7" font-weight="bold" text-anchor="middle">Go</text>
    
    <rect x="592" y="694" width="134" height="28" rx="14" fill="#e8f5e9" stroke="#4a3b32" stroke-width="1" />
    <text x="659" y="712" font-family="sans-serif" font-size="11.5" fill="#2e7d32" font-weight="bold" text-anchor="middle">Node.js</text>
    
    <rect x="732" y="694" width="134" height="28" rx="14" fill="#f3e5f5" stroke="#4a3b32" stroke-width="1" />
    <text x="799" y="712" font-family="sans-serif" font-size="11.5" fill="#7b1fa2" font-weight="bold" text-anchor="middle">Terraform</text>
    
    <rect x="32" y="734" width="134" height="28" rx="14" fill="#efebe9" stroke="#4a3b32" stroke-width="1" />
    <text x="99" y="752" font-family="sans-serif" font-size="11.5" fill="#5d4037" font-weight="bold" text-anchor="middle">Python</text>
    
    <rect x="172" y="734" width="134" height="28" rx="14" fill="#fff3e0" stroke="#4a3b32" stroke-width="1" />
    <text x="239" y="752" font-family="sans-serif" font-size="11.5" fill="#e65100" font-weight="bold" text-anchor="middle">AWS</text>
    
    <rect x="312" y="734" width="134" height="28" rx="14" fill="#eceff1" stroke="#4a3b32" stroke-width="1" />
    <text x="379" y="752" font-family="sans-serif" font-size="11.5" fill="#37474f" font-weight="bold" text-anchor="middle">Linux</text>
    
    <rect x="452" y="734" width="134" height="28" rx="14" fill="#fbe9e7" stroke="#4a3b32" stroke-width="1" />
    <text x="519" y="752" font-family="sans-serif" font-size="11.5" fill="#d84315" font-weight="bold" text-anchor="middle">Grafana</text>
    
    <rect x="592" y="734" width="134" height="28" rx="14" fill="#ffebee" stroke="#4a3b32" stroke-width="1" />
    <text x="659" y="752" font-family="sans-serif" font-size="11.5" fill="#c62828" font-weight="bold" text-anchor="middle">Prometheus</text>
    
    <rect x="732" y="734" width="134" height="28" rx="14" fill="#e0f2f1" stroke="#4a3b32" stroke-width="1" />
    <text x="799" y="752" font-family="sans-serif" font-size="11.5" fill="#00695c" font-weight="bold" text-anchor="middle">Backstage</text>
    

  <!-- ═══ ACTIVE QUESTS PANEL y=796 h=162 ═══ -->
  
<g class="panel">
  <!-- Dropshadow -->
  <rect x="22" y="799" width="860" height="162" rx="14" fill="rgba(40,30,20,0.15)"/>
  <!-- Main Box -->
  <rect x="20" y="796" width="860" height="162" rx="14" fill="rgba(255, 252, 242, 0.92)" stroke="#4a3b32" stroke-width="2"/>
  <rect x="24" y="800" width="852" height="154" rx="10" fill="none" stroke="#c9a054" stroke-width="1" opacity="0.4" />
  
  <!-- Ivy Corner Decorations -->
  
    <g transform="translate(30,806) rotate(-45) scale(0.8)">
      <path d="M0,0 Q-10,-15 0,-25 Q10,-15 0,0" fill="#5b8c5a" />
      <path d="M-4,-8 Q-12,-16 -6,-22" fill="#7ba879" opacity="0.6" />
      <path d="M0,0 L0,-23" stroke="#2d4a34" stroke-width="0.8" />
    </g>
  
  
    <g transform="translate(870,806) rotate(45) scale(0.8)">
      <path d="M0,0 Q-10,-15 0,-25 Q10,-15 0,0" fill="#5b8c5a" />
      <path d="M-4,-8 Q-12,-16 -6,-22" fill="#7ba879" opacity="0.6" />
      <path d="M0,0 L0,-23" stroke="#2d4a34" stroke-width="0.8" />
    </g>
  
  
    <g transform="translate(30,948) rotate(-135) scale(0.8)">
      <path d="M0,0 Q-10,-15 0,-25 Q10,-15 0,0" fill="#5b8c5a" />
      <path d="M-4,-8 Q-12,-16 -6,-22" fill="#7ba879" opacity="0.6" />
      <path d="M0,0 L0,-23" stroke="#2d4a34" stroke-width="0.8" />
    </g>
  
  
    <g transform="translate(870,948) rotate(135) scale(0.8)">
      <path d="M0,0 Q-10,-15 0,-25 Q10,-15 0,0" fill="#5b8c5a" />
      <path d="M-4,-8 Q-12,-16 -6,-22" fill="#7ba879" opacity="0.6" />
      <path d="M0,0 L0,-23" stroke="#2d4a34" stroke-width="0.8" />
    </g>
  

  <!-- Label badge -->
  <rect x="50" y="784" width="294" height="24" rx="12" fill="#3a5f43" stroke="#4a3b32" stroke-width="1.5"/>
  <text x="62" y="800" font-family="'Outfit', 'Inter', sans-serif" font-size="11.5" fill="#fcfbf7" font-weight="bold" letter-spacing="1.5">🗺️  CURRENT JOURNEY (ACTIVE QUESTS)</text>
</g>
  
    <text x="40" y="836" font-family="sans-serif" font-size="13" fill="#4a3b32">
      <tspan fill="#3a5f43" font-weight="bold">✦ </tspan>LeaderWorkerSet topology-aware scheduling
      <tspan dx="10" fill="#4caf50" font-size="10.5" font-weight="bold">[ Active Journey 🌿 ]</tspan>
    </text>
    
    <text x="40" y="862" font-family="sans-serif" font-size="13" fill="#4a3b32">
      <tspan fill="#3a5f43" font-weight="bold">✦ </tspan>CompositePodGroup integration (KEP-893)
      <tspan dx="10" fill="#4caf50" font-size="10.5" font-weight="bold">[ Active Journey 🌿 ]</tspan>
    </text>
    
    <text x="40" y="888" font-family="sans-serif" font-size="13" fill="#4a3b32">
      <tspan fill="#3a5f43" font-weight="bold">✦ </tspan>GitWorld Engine rendering pipeline core
      <tspan dx="10" fill="#b2851d" font-size="10.5" font-weight="bold">[ Completed 🏆 ]</tspan>
    </text>
    
    <text x="40" y="914" font-family="sans-serif" font-size="13" fill="#4a3b32">
      <tspan fill="#3a5f43" font-weight="bold">✦ </tspan>Real-time automatic location weather sync
      <tspan dx="10" fill="#b2851d" font-size="10.5" font-weight="bold">[ Completed 🏆 ]</tspan>
    </text>
    
    <text x="40" y="940" font-family="sans-serif" font-size="13" fill="#4a3b32">
      <tspan fill="#3a5f43" font-weight="bold">✦ </tspan>Upstream Node.js core exploration
      <tspan dx="10" fill="#0288d1" font-size="10.5" font-weight="bold">[ Wandering 🏕️ ]</tspan>
    </text>
    

  <!-- ═══ STATS HUD y=974 h=76 ═══ -->
  
    <g>
      <rect x="31" y="976" width="270" height="76" rx="12" fill="rgba(40,30,20,0.1)"/>
      <rect x="30" y="974" width="270" height="76" rx="12" fill="rgba(255, 252, 242, 0.92)" stroke="#4a3b32" stroke-width="1.5"/>
      <text x="42" y="994" font-family="sans-serif" font-size="9" fill="#3a5f43" font-weight="bold" letter-spacing="1.5">📝  TRAVEL STREAK</text>
      <text x="42" y="1022" font-family="sans-serif" font-size="20" fill="#4a3b32" font-weight="bold">10 days</text>
      <text x="42" y="1039" font-family="sans-serif" font-size="9.5" fill="#4a3b32" opacity="0.6">committed in a row</text>
    </g>
    
    <g>
      <rect x="326" y="976" width="270" height="76" rx="12" fill="rgba(40,30,20,0.1)"/>
      <rect x="325" y="974" width="270" height="76" rx="12" fill="rgba(255, 252, 242, 0.92)" stroke="#4a3b32" stroke-width="1.5"/>
      <text x="337" y="994" font-family="sans-serif" font-size="9" fill="#3a5f43" font-weight="bold" letter-spacing="1.5">🌱  SPROUTS GROWN</text>
      <text x="337" y="1022" font-family="sans-serif" font-size="20" fill="#4a3b32" font-weight="bold">414</text>
      <text x="337" y="1039" font-family="sans-serif" font-size="9.5" fill="#4a3b32" opacity="0.6">total commits</text>
    </g>
    
    <g>
      <rect x="621" y="976" width="270" height="76" rx="12" fill="rgba(40,30,20,0.1)"/>
      <rect x="620" y="974" width="270" height="76" rx="12" fill="rgba(255, 252, 242, 0.92)" stroke="#4a3b32" stroke-width="1.5"/>
      <text x="632" y="994" font-family="sans-serif" font-size="9" fill="#3a5f43" font-weight="bold" letter-spacing="1.5">🏡  HOME BIOME</text>
      <text x="632" y="1022" font-family="sans-serif" font-size="20" fill="#4a3b32" font-weight="bold">JS Kingdom</text>
      <text x="632" y="1039" font-family="sans-serif" font-size="9.5" fill="#4a3b32" opacity="0.6">Weather: rain</text>
    </g>
    

  <!-- Cozy bottom footer -->
  <text x="450" y="1070" font-family="sans-serif" font-size="10" fill="#4a3b32" opacity="0.45" text-anchor="middle" letter-spacing="1">
    🌾  Harvested daily by GitWorld Engine  ·  github.com/Dasmat13/git-world-action  🌾
  </text>

  <style>
    .floater {
      animation: floatUp 8s ease-in-out infinite alternate;
    }
    @keyframes floatUp {
      0% { transform: translateY(0px) translateX(0px); opacity: 0.2; }
      50% { transform: translateY(-15px) translateX(8px); opacity: 0.8; }
      100% { transform: translateY(-30px) translateX(-5px); opacity: 0.3; }
    }
    @keyframes floatCloud {
      0% { transform: translateX(-220px); }
      100% { transform: translateX(900px); }
    }
  </style>
</svg>