<svg xmlns="http://www.w3.org/2000/svg" viewBox="0 0 900 1160" width="900" height="1160" style="border:4px solid #000000;border-radius:18px;overflow:hidden">
  <defs>
    <!-- Dot Matrix Grid Pattern -->
    <pattern id="dotGrid" width="24" height="24" patternUnits="userSpaceOnUse">
      <circle cx="2" cy="2" r="1.5" fill="#eadecd" />
    </pattern>
  </defs>

  <!-- ═══ BASE BACKDROP (KASHMIR SUNSET STRIPES) ═══ -->
  <rect x="0" y="0" width="900" height="93.33333333333333" fill="#0f172a" /><rect x="0" y="93.33333333333333" width="900" height="93.33333333333333" fill="#1e293b" /><rect x="0" y="186.66666666666666" width="900" height="93.33333333333333" fill="#334155" />
  <rect width="900" height="1160" y="280" fill="#f6f5f0"/>
  <rect width="900" height="1160" y="280" fill="url(#dotGrid)"/>

  <!-- Sun / Moon behind mountains -->
  <circle cx="480" cy="160" r="72" fill="#f1f5f9" stroke="#000000" stroke-width="4" />
  
  <!-- Dynamic floating vector stars -->
  <g class="floating-item"><path d="M 70,50 Q 70,60 80,60 Q 70,60 70,70 Q 70,60 60,60 Q 70,60 70,50 Z" fill="#ffffff" stroke="#000000" stroke-width="2" /></g><g class="floating-item-delay-1"><path d="M 820,78 Q 820,90 832,90 Q 820,90 820,102 Q 820,90 808,90 Q 820,90 820,78 Z" fill="#facc15" stroke="#000000" stroke-width="2" /></g><g class="floating-item-delay-2"><path d="M 190,142 Q 190,150 198,150 Q 190,150 190,158 Q 190,150 182,150 Q 190,150 190,142 Z" fill="#f472b6" stroke="#000000" stroke-width="2" /></g>

  <!-- ═══ HIMALAYAN MOUNTAINS ═══ -->
  
    <!-- Back Peak (Left) -->
    <polygon points="320,130 120,280 520,280" fill="#1e1b4b" stroke="#000000" stroke-width="3" />
    
    <!-- Back Peak (Right) -->
    <polygon points="720,140 520,280 920,280" fill="#1e1b4b" stroke="#000000" stroke-width="3" />
    
    <!-- Fore Peak (Left) with Snow Cap -->
    <g>
      <polygon points="220,90 20,280 220,280" fill="#312e81" stroke="#000000" stroke-width="3" />
      <polygon points="220,90 220,280 420,280" fill="#1e1b4b" stroke="#000000" stroke-width="3" />
      <!-- Snow cap -->
      <polygon points="220,90 180,140 220,140" fill="#ffffff" stroke="#000000" stroke-width="3" />
      <polygon points="220,90 220,140 260,140" fill="#e2e8f0" stroke="#000000" stroke-width="3" />
    </g>

    <!-- Fore Peak (Right) with Snow Cap -->
    <g>
      <polygon points="580,100 380,280 580,280" fill="#312e81" stroke="#000000" stroke-width="3" />
      <polygon points="580,100 580,280 780,280" fill="#1e1b4b" stroke="#000000" stroke-width="3" />
      <!-- Snow cap -->
      <polygon points="580,100 540,150 580,150" fill="#ffffff" stroke="#000000" stroke-width="3" />
      <polygon points="580,100 580,150 620,150" fill="#e2e8f0" stroke="#000000" stroke-width="3" />
    </g>
  

  <!-- ═══ VALLEY WATER LAKE LINE ═══ -->
  <rect x="0" y="268" width="900" height="12" fill="#1e1b4b" stroke="#000000" stroke-width="3" />

  <!-- ═══ FOREGROUND PINE FOREST ═══ -->
  
    <g transform="translate(60, 280) scale(0.95)">
      <!-- Trunk -->
      <rect x="-4" y="0" width="8" height="15" fill="#78350f" stroke="#000000" stroke-width="2" />
      <!-- Leaf levels -->
      <polygon points="0,-35 -24,-10 24,-10" fill="#15803d" stroke="#000000" stroke-width="2.5" />
      <polygon points="0,-50 -18,-25 18,-25" fill="#166534" stroke="#000000" stroke-width="2.5" />
      <polygon points="0,-65 -13,-40 13,-40" fill="#14532d" stroke="#000000" stroke-width="2.5" />
    </g>
  
    <g transform="translate(110, 280) scale(1.15)">
      <!-- Trunk -->
      <rect x="-4" y="0" width="8" height="15" fill="#78350f" stroke="#000000" stroke-width="2" />
      <!-- Leaf levels -->
      <polygon points="0,-35 -24,-10 24,-10" fill="#15803d" stroke="#000000" stroke-width="2.5" />
      <polygon points="0,-50 -18,-25 18,-25" fill="#166534" stroke="#000000" stroke-width="2.5" />
      <polygon points="0,-65 -13,-40 13,-40" fill="#14532d" stroke="#000000" stroke-width="2.5" />
    </g>
  
    <g transform="translate(170, 280) scale(0.8)">
      <!-- Trunk -->
      <rect x="-4" y="0" width="8" height="15" fill="#78350f" stroke="#000000" stroke-width="2" />
      <!-- Leaf levels -->
      <polygon points="0,-35 -24,-10 24,-10" fill="#15803d" stroke="#000000" stroke-width="2.5" />
      <polygon points="0,-50 -18,-25 18,-25" fill="#166534" stroke="#000000" stroke-width="2.5" />
      <polygon points="0,-65 -13,-40 13,-40" fill="#14532d" stroke="#000000" stroke-width="2.5" />
    </g>
  
    <g transform="translate(380, 280) scale(1)">
      <!-- Trunk -->
      <rect x="-4" y="0" width="8" height="15" fill="#78350f" stroke="#000000" stroke-width="2" />
      <!-- Leaf levels -->
      <polygon points="0,-35 -24,-10 24,-10" fill="#15803d" stroke="#000000" stroke-width="2.5" />
      <polygon points="0,-50 -18,-25 18,-25" fill="#166534" stroke="#000000" stroke-width="2.5" />
      <polygon points="0,-65 -13,-40 13,-40" fill="#14532d" stroke="#000000" stroke-width="2.5" />
    </g>
  
    <g transform="translate(420, 280) scale(0.7)">
      <!-- Trunk -->
      <rect x="-4" y="0" width="8" height="15" fill="#78350f" stroke="#000000" stroke-width="2" />
      <!-- Leaf levels -->
      <polygon points="0,-35 -24,-10 24,-10" fill="#15803d" stroke="#000000" stroke-width="2.5" />
      <polygon points="0,-50 -18,-25 18,-25" fill="#166534" stroke="#000000" stroke-width="2.5" />
      <polygon points="0,-65 -13,-40 13,-40" fill="#14532d" stroke="#000000" stroke-width="2.5" />
    </g>
  
    <g transform="translate(490, 280) scale(0.9)">
      <!-- Trunk -->
      <rect x="-4" y="0" width="8" height="15" fill="#78350f" stroke="#000000" stroke-width="2" />
      <!-- Leaf levels -->
      <polygon points="0,-35 -24,-10 24,-10" fill="#15803d" stroke="#000000" stroke-width="2.5" />
      <polygon points="0,-50 -18,-25 18,-25" fill="#166534" stroke="#000000" stroke-width="2.5" />
      <polygon points="0,-65 -13,-40 13,-40" fill="#14532d" stroke="#000000" stroke-width="2.5" />
    </g>
  
    <g transform="translate(760, 280) scale(1.2)">
      <!-- Trunk -->
      <rect x="-4" y="0" width="8" height="15" fill="#78350f" stroke="#000000" stroke-width="2" />
      <!-- Leaf levels -->
      <polygon points="0,-35 -24,-10 24,-10" fill="#15803d" stroke="#000000" stroke-width="2.5" />
      <polygon points="0,-50 -18,-25 18,-25" fill="#166534" stroke="#000000" stroke-width="2.5" />
      <polygon points="0,-65 -13,-40 13,-40" fill="#14532d" stroke="#000000" stroke-width="2.5" />
    </g>
  
    <g transform="translate(820, 280) scale(0.85)">
      <!-- Trunk -->
      <rect x="-4" y="0" width="8" height="15" fill="#78350f" stroke="#000000" stroke-width="2" />
      <!-- Leaf levels -->
      <polygon points="0,-35 -24,-10 24,-10" fill="#15803d" stroke="#000000" stroke-width="2.5" />
      <polygon points="0,-50 -18,-25 18,-25" fill="#166534" stroke="#000000" stroke-width="2.5" />
      <polygon points="0,-65 -13,-40 13,-40" fill="#14532d" stroke="#000000" stroke-width="2.5" />
    </g>
  

  <!-- ═══ DIVIDERS ═══ -->
  
    <!-- Lake shore shadow border -->
    <rect x="-10" y="278" width="920" height="34" fill="#38bdf8" stroke="#000000" stroke-width="3" />
    
    <!-- Moving Text Marquee (lake waves) -->
    <g transform="translate(0, 280)">
      <g class="marquee-group">
        <text y="21" font-family="'Space Grotesk', sans-serif" font-size="12.5" font-weight="900" fill="#000000" letter-spacing="1">
          🌊 KASHMIR DAL LAKE · HIMACHAL HIMALAYAS · DEPLOY · OPTIMIZE · AUTOMATE · ORCHESTRATE · MERGE · REFACTOR · KASHMIR DAL LAKE · HIMACHAL HIMALAYAS · DEPLOY · OPTIMIZE · AUTOMATE · ORCHESTRATE · MERGE · REFACTOR
        </text>
      </g>
    </g>
    
    <!-- Shore divider -->
    <line x1="0" y1="312" x2="900" y2="312" stroke="#000000" stroke-width="4" />
  

  <!-- ═══ ANIMATED BIRDS & CLOUDS ═══ -->
  <!-- Flat drifting cloud -->
  <g class="floating-cloud">
    <rect x="0" y="45" width="130" height="22" rx="11" fill="#ffffff" stroke="#000000" stroke-width="3" />
  </g>
  <!-- Flying birds -->
  <g class="flying-bird">
    <path d="M 0,0 L 6,-5 L 12,0 L 18,-5 L 24,0" fill="none" stroke="#000000" stroke-width="3.5" stroke-linecap="round" />
  </g>
  <g class="flying-bird-delay">
    <path d="M 0,0 L 5,-4 L 10,0 L 15,-4 L 20,0" fill="none" stroke="#000000" stroke-width="3" stroke-linecap="round" />
  </g>

  <!-- ═══ HERO HEADER ═══ -->
  <g transform="translate(150, 336)">
    <!-- Shadow -->
    <rect x="6" y="6" width="600" height="114" rx="6" fill="#000000"/>
    <!-- Main Box -->
    <rect x="0" y="0" width="600" height="114" rx="6" fill="#ffffff" stroke="#000000" stroke-width="3"/>
    
    <!-- Neon Pink left vertical stripe -->
    <rect x="3" y="3" width="10" height="108" fill="#f472b6" />
    <line x1="13" y1="3" x2="13" y2="111" stroke="#000000" stroke-width="3" />

    <text x="310" y="52" font-family="'Space Grotesk', sans-serif" font-size="34" fill="#000000" text-anchor="middle" font-weight="900">HI, I'M DASMAT ⚡</text>
    <text x="310" y="82" font-family="'Inter', sans-serif" font-size="13" fill="#000000" font-weight="700" text-anchor="middle" letter-spacing="0.5">
      DEVOPS EXPLORER  ·  FULL-STACK DEVELOPER  ·  OSS CONTRIBUTOR
    </text>
  </g>

  <!-- ═══ ABOUT ME PANEL y=475 h=125 (spacious layout) ═══ -->
  
<g class="panel">
  <!-- Card Shadow -->
  <rect x="26" y="481" width="860" height="125" rx="6" fill="#000000" />
  <!-- Card Main Box -->
  <rect x="20" y="475" width="860" height="125" rx="6" fill="#ffffff" stroke="#000000" stroke-width="3" />
  
  <!-- Badge Shadow -->
  <rect x="48" y="464" width="202.5" height="28" rx="4" fill="#000000" />
  <!-- Badge Main -->
  <rect x="45" y="461" width="202.5" height="28" rx="4" fill="#38bdf8" stroke="#000000" stroke-width="3" />
  <text x="146.25" y="479" font-family="'Space Grotesk', 'Outfit', sans-serif" font-size="12" fill="#000000" font-weight="900" text-anchor="middle" letter-spacing="1.2">⚡  ABOUT THE TRAVELER</text>
</g>
  <text x="40" y="515" font-family="'Inter', sans-serif" font-size="12.5" fill="#000000" font-weight="700">
    ⚡  <tspan font-weight="900" fill="#facc15" stroke="#000000" stroke-width="0.5">CORE INTERESTS:</tspan> Infrastructure automation, Cloud-Native scaling, Self-healing architectures
  </text>
  <text x="40" y="545" font-family="'Inter', sans-serif" font-size="12.5" fill="#000000" font-weight="700">
    ⚡  <tspan font-weight="900" fill="#facc15" stroke="#000000" stroke-width="0.5">CONTRIBUTING TO:</tspan> Kubernetes SIGs, Node.js Core, Express.js, Backstage Ecosystem
  </text>
  <text x="40" y="575" font-family="'Inter', sans-serif" font-size="12.5" fill="#000000" font-weight="700">
    ⚡  <tspan font-weight="900" fill="#facc15" stroke="#000000" stroke-width="0.5">CONTACT:</tspan> dasmath06@gmail.com   ·   ⚡  Experiments daily with automated recovery pipelines
  </text>

  <!-- ═══ WORLD STATE BAR y=620 h=55 ═══ -->
  
<g class="panel">
  <!-- Card Shadow -->
  <rect x="26" y="626" width="860" height="55" rx="6" fill="#000000" />
  <!-- Card Main Box -->
  <rect x="20" y="620" width="860" height="55" rx="6" fill="#ffffff" stroke="#000000" stroke-width="3" />
  
  <!-- Badge Shadow -->
  <rect x="48" y="609" width="253.5" height="28" rx="4" fill="#000000" />
  <!-- Badge Main -->
  <rect x="45" y="606" width="253.5" height="28" rx="4" fill="#f472b6" stroke="#000000" stroke-width="3" />
  <text x="171.75" y="624" font-family="'Space Grotesk', 'Outfit', sans-serif" font-size="12" fill="#000000" font-weight="900" text-anchor="middle" letter-spacing="1.2">🏡  CURRENT ENVIRONMENT LOG</text>
</g>
  <text x="450" y="653" font-family="'Space Grotesk', sans-serif" font-size="13.5" fill="#000000" text-anchor="middle" font-weight="900">
    🌳 BIOME: <tspan fill="#000000" font-weight="900">JS KINGDOM</tspan>
    <tspan dx="15" fill="#000000" opacity="0.3">|</tspan>
    <tspan dx="15">🕰️ TIME: <tspan fill="#38bdf8">NIGHT</tspan></tspan>
    <tspan dx="15" fill="#000000" opacity="0.3">|</tspan>
    <tspan dx="15">🌦️ WEATHER: <tspan fill="#a855f7">RAIN</tspan></tspan>
    <tspan dx="15" fill="#000000" opacity="0.3">|</tspan>
    <tspan dx="15">🎒 STREAK: <tspan fill="#fbbf24">10 DAYS</tspan></tspan>
  </text>

  <!-- ═══ TECH STACK PANEL y=695 h=130 ═══ -->
  
<g class="panel">
  <!-- Card Shadow -->
  <rect x="26" y="701" width="860" height="130" rx="6" fill="#000000" />
  <!-- Card Main Box -->
  <rect x="20" y="695" width="860" height="130" rx="6" fill="#ffffff" stroke="#000000" stroke-width="3" />
  
  <!-- Badge Shadow -->
  <rect x="48" y="684" width="262" height="28" rx="4" fill="#000000" />
  <!-- Badge Main -->
  <rect x="45" y="681" width="262" height="28" rx="4" fill="#4ade80" stroke="#000000" stroke-width="3" />
  <text x="176" y="699" font-family="'Space Grotesk', 'Outfit', sans-serif" font-size="12" fill="#000000" font-weight="900" text-anchor="middle" letter-spacing="1.2">🎒  PACKED GEAR (TECH STACK)</text>
</g>
  
    <g>
      <!-- Shadow -->
      <rect x="35" y="729" width="128" height="26" rx="4" fill="#000000" />
      <!-- Main -->
      <rect x="32" y="726" width="128" height="26" rx="4" fill="#4ade80" stroke="#000000" stroke-width="2" />
      <text x="96" y="743" font-family="'Space Grotesk', sans-serif" font-size="11" fill="#000000" font-weight="900" text-anchor="middle">KUBERNETES</text>
    </g>
    
    <g>
      <!-- Shadow -->
      <rect x="175" y="729" width="128" height="26" rx="4" fill="#000000" />
      <!-- Main -->
      <rect x="172" y="726" width="128" height="26" rx="4" fill="#38bdf8" stroke="#000000" stroke-width="2" />
      <text x="236" y="743" font-family="'Space Grotesk', sans-serif" font-size="11" fill="#000000" font-weight="900" text-anchor="middle">DOCKER</text>
    </g>
    
    <g>
      <!-- Shadow -->
      <rect x="315" y="729" width="128" height="26" rx="4" fill="#000000" />
      <!-- Main -->
      <rect x="312" y="726" width="128" height="26" rx="4" fill="#f472b6" stroke="#000000" stroke-width="2" />
      <text x="376" y="743" font-family="'Space Grotesk', sans-serif" font-size="11" fill="#000000" font-weight="900" text-anchor="middle">TYPESCRIPT</text>
    </g>
    
    <g>
      <!-- Shadow -->
      <rect x="455" y="729" width="128" height="26" rx="4" fill="#000000" />
      <!-- Main -->
      <rect x="452" y="726" width="128" height="26" rx="4" fill="#22d3ee" stroke="#000000" stroke-width="2" />
      <text x="516" y="743" font-family="'Space Grotesk', sans-serif" font-size="11" fill="#000000" font-weight="900" text-anchor="middle">GO</text>
    </g>
    
    <g>
      <!-- Shadow -->
      <rect x="595" y="729" width="128" height="26" rx="4" fill="#000000" />
      <!-- Main -->
      <rect x="592" y="726" width="128" height="26" rx="4" fill="#a855f7" stroke="#000000" stroke-width="2" />
      <text x="656" y="743" font-family="'Space Grotesk', sans-serif" font-size="11" fill="#000000" font-weight="900" text-anchor="middle">NODE.JS</text>
    </g>
    
    <g>
      <!-- Shadow -->
      <rect x="735" y="729" width="128" height="26" rx="4" fill="#000000" />
      <!-- Main -->
      <rect x="732" y="726" width="128" height="26" rx="4" fill="#fbbf24" stroke="#000000" stroke-width="2" />
      <text x="796" y="743" font-family="'Space Grotesk', sans-serif" font-size="11" fill="#000000" font-weight="900" text-anchor="middle">TERRAFORM</text>
    </g>
    
    <g>
      <!-- Shadow -->
      <rect x="35" y="775" width="128" height="26" rx="4" fill="#000000" />
      <!-- Main -->
      <rect x="32" y="772" width="128" height="26" rx="4" fill="#ff7096" stroke="#000000" stroke-width="2" />
      <text x="96" y="789" font-family="'Space Grotesk', sans-serif" font-size="11" fill="#000000" font-weight="900" text-anchor="middle">PYTHON</text>
    </g>
    
    <g>
      <!-- Shadow -->
      <rect x="175" y="775" width="128" height="26" rx="4" fill="#000000" />
      <!-- Main -->
      <rect x="172" y="772" width="128" height="26" rx="4" fill="#fb923c" stroke="#000000" stroke-width="2" />
      <text x="236" y="789" font-family="'Space Grotesk', sans-serif" font-size="11" fill="#000000" font-weight="900" text-anchor="middle">AWS</text>
    </g>
    
    <g>
      <!-- Shadow -->
      <rect x="315" y="775" width="128" height="26" rx="4" fill="#000000" />
      <!-- Main -->
      <rect x="312" y="772" width="128" height="26" rx="4" fill="#94a3b8" stroke="#000000" stroke-width="2" />
      <text x="376" y="789" font-family="'Space Grotesk', sans-serif" font-size="11" fill="#000000" font-weight="900" text-anchor="middle">LINUX</text>
    </g>
    
    <g>
      <!-- Shadow -->
      <rect x="455" y="775" width="128" height="26" rx="4" fill="#000000" />
      <!-- Main -->
      <rect x="452" y="772" width="128" height="26" rx="4" fill="#f87171" stroke="#000000" stroke-width="2" />
      <text x="516" y="789" font-family="'Space Grotesk', sans-serif" font-size="11" fill="#000000" font-weight="900" text-anchor="middle">GRAFANA</text>
    </g>
    
    <g>
      <!-- Shadow -->
      <rect x="595" y="775" width="128" height="26" rx="4" fill="#000000" />
      <!-- Main -->
      <rect x="592" y="772" width="128" height="26" rx="4" fill="#fb7185" stroke="#000000" stroke-width="2" />
      <text x="656" y="789" font-family="'Space Grotesk', sans-serif" font-size="11" fill="#000000" font-weight="900" text-anchor="middle">PROMETHEUS</text>
    </g>
    
    <g>
      <!-- Shadow -->
      <rect x="735" y="775" width="128" height="26" rx="4" fill="#000000" />
      <!-- Main -->
      <rect x="732" y="772" width="128" height="26" rx="4" fill="#2dd4bf" stroke="#000000" stroke-width="2" />
      <text x="796" y="789" font-family="'Space Grotesk', sans-serif" font-size="11" fill="#000000" font-weight="900" text-anchor="middle">BACKSTAGE</text>
    </g>
    

  <!-- ═══ ACTIVE QUESTS PANEL y=845 h=180 ═══ -->
  
<g class="panel">
  <!-- Card Shadow -->
  <rect x="26" y="851" width="860" height="180" rx="6" fill="#000000" />
  <!-- Card Main Box -->
  <rect x="20" y="845" width="860" height="180" rx="6" fill="#ffffff" stroke="#000000" stroke-width="3" />
  
  <!-- Badge Shadow -->
  <rect x="48" y="834" width="330" height="28" rx="4" fill="#000000" />
  <!-- Badge Main -->
  <rect x="45" y="831" width="330" height="28" rx="4" fill="#c084fc" stroke="#000000" stroke-width="3" />
  <text x="210" y="849" font-family="'Space Grotesk', 'Outfit', sans-serif" font-size="12" fill="#000000" font-weight="900" text-anchor="middle" letter-spacing="1.2">🗺️  CURRENT JOURNEY (ACTIVE QUESTS)</text>
</g>
  
    <g transform="translate(40, 886)">
      <!-- Bullet diamond -->
      <rect x="0" y="-4" width="8" height="8" fill="#000000" transform="rotate(45 4 4)" />
      <text x="24" y="5" font-family="'Inter', sans-serif" font-size="12.5" fill="#000000" font-weight="700">
        LeaderWorkerSet topology-aware scheduling
      </text>
      
      <!-- Status pill badge -->
      <g transform="translate(670, -11)">
        <rect x="0" y="0" width="120" height="20" rx="4" fill="#4ade80" stroke="#000000" stroke-width="2" />
        <text x="60" y="14" font-family="'Space Grotesk', sans-serif" font-size="9" fill="#000000" font-weight="900" text-anchor="middle" letter-spacing="0.5">
          ACTIVE JOURNEY 🌿
        </text>
      </g>
    </g>
    
    <g transform="translate(40, 916)">
      <!-- Bullet diamond -->
      <rect x="0" y="-4" width="8" height="8" fill="#000000" transform="rotate(45 4 4)" />
      <text x="24" y="5" font-family="'Inter', sans-serif" font-size="12.5" fill="#000000" font-weight="700">
        CompositePodGroup integration (KEP-893)
      </text>
      
      <!-- Status pill badge -->
      <g transform="translate(670, -11)">
        <rect x="0" y="0" width="120" height="20" rx="4" fill="#4ade80" stroke="#000000" stroke-width="2" />
        <text x="60" y="14" font-family="'Space Grotesk', sans-serif" font-size="9" fill="#000000" font-weight="900" text-anchor="middle" letter-spacing="0.5">
          ACTIVE JOURNEY 🌿
        </text>
      </g>
    </g>
    
    <g transform="translate(40, 946)">
      <!-- Bullet diamond -->
      <rect x="0" y="-4" width="8" height="8" fill="#000000" transform="rotate(45 4 4)" />
      <text x="24" y="5" font-family="'Inter', sans-serif" font-size="12.5" fill="#000000" font-weight="700">
        GitWorld Engine rendering pipeline core
      </text>
      
      <!-- Status pill badge -->
      <g transform="translate(670, -11)">
        <rect x="0" y="0" width="120" height="20" rx="4" fill="#facc15" stroke="#000000" stroke-width="2" />
        <text x="60" y="14" font-family="'Space Grotesk', sans-serif" font-size="9" fill="#000000" font-weight="900" text-anchor="middle" letter-spacing="0.5">
          COMPLETED 🏆
        </text>
      </g>
    </g>
    
    <g transform="translate(40, 976)">
      <!-- Bullet diamond -->
      <rect x="0" y="-4" width="8" height="8" fill="#000000" transform="rotate(45 4 4)" />
      <text x="24" y="5" font-family="'Inter', sans-serif" font-size="12.5" fill="#000000" font-weight="700">
        Real-time automatic location weather sync
      </text>
      
      <!-- Status pill badge -->
      <g transform="translate(670, -11)">
        <rect x="0" y="0" width="120" height="20" rx="4" fill="#facc15" stroke="#000000" stroke-width="2" />
        <text x="60" y="14" font-family="'Space Grotesk', sans-serif" font-size="9" fill="#000000" font-weight="900" text-anchor="middle" letter-spacing="0.5">
          COMPLETED 🏆
        </text>
      </g>
    </g>
    
    <g transform="translate(40, 1006)">
      <!-- Bullet diamond -->
      <rect x="0" y="-4" width="8" height="8" fill="#000000" transform="rotate(45 4 4)" />
      <text x="24" y="5" font-family="'Inter', sans-serif" font-size="12.5" fill="#000000" font-weight="700">
        Upstream Node.js core exploration
      </text>
      
      <!-- Status pill badge -->
      <g transform="translate(670, -11)">
        <rect x="0" y="0" width="120" height="20" rx="4" fill="#38bdf8" stroke="#000000" stroke-width="2" />
        <text x="60" y="14" font-family="'Space Grotesk', sans-serif" font-size="9" fill="#000000" font-weight="900" text-anchor="middle" letter-spacing="0.5">
          WANDERING 🏕️
        </text>
      </g>
    </g>
    

  <!-- ═══ STATS HUD y=1048 h=76 ═══ -->
  
    <g>
      <!-- Shadow -->
      <rect x="35" y="1053" width="270" height="76" rx="6" fill="#000000" />
      <!-- Main -->
      <rect x="30" y="1048" width="270" height="76" rx="6" fill="#4ade80" stroke="#000000" stroke-width="3" />
      <text x="42" y="1068" font-family="'Space Grotesk', sans-serif" font-size="9" fill="#000000" font-weight="900" letter-spacing="1">📝  TRAVEL STREAK</text>
      <text x="42" y="1096" font-family="'Space Grotesk', sans-serif" font-size="20" fill="#000000" font-weight="900">10 days</text>
      <text x="42" y="1113" font-family="'Inter', sans-serif" font-size="9.5" fill="#000000" font-weight="700" opacity="0.8">committed in a row</text>
    </g>
    
    <g>
      <!-- Shadow -->
      <rect x="330" y="1053" width="270" height="76" rx="6" fill="#000000" />
      <!-- Main -->
      <rect x="325" y="1048" width="270" height="76" rx="6" fill="#38bdf8" stroke="#000000" stroke-width="3" />
      <text x="337" y="1068" font-family="'Space Grotesk', sans-serif" font-size="9" fill="#000000" font-weight="900" letter-spacing="1">🌱  SPROUTS GROWN</text>
      <text x="337" y="1096" font-family="'Space Grotesk', sans-serif" font-size="20" fill="#000000" font-weight="900">417</text>
      <text x="337" y="1113" font-family="'Inter', sans-serif" font-size="9.5" fill="#000000" font-weight="700" opacity="0.8">total commits</text>
    </g>
    
    <g>
      <!-- Shadow -->
      <rect x="625" y="1053" width="270" height="76" rx="6" fill="#000000" />
      <!-- Main -->
      <rect x="620" y="1048" width="270" height="76" rx="6" fill="#facc15" stroke="#000000" stroke-width="3" />
      <text x="632" y="1068" font-family="'Space Grotesk', sans-serif" font-size="9" fill="#000000" font-weight="900" letter-spacing="1">🏡  HOME BIOME</text>
      <text x="632" y="1096" font-family="'Space Grotesk', sans-serif" font-size="20" fill="#000000" font-weight="900">JS KINGDOM</text>
      <text x="632" y="1113" font-family="'Inter', sans-serif" font-size="9.5" fill="#000000" font-weight="700" opacity="0.8">Weather: RAIN</text>
    </g>
    

  <!-- Neobrutalist bottom footer -->
  <text x="450" y="1148" font-family="'Space Grotesk', sans-serif" font-size="10.5" fill="#000000" font-weight="800" text-anchor="middle" letter-spacing="1">
    ⚡  HARVESTED DAILY BY GITWORLD ENGINE  ·  GITHUB.COM/DASMAT13/GIT-WORLD-ACTION  ⚡
  </text>

  <style>
    .floating-item {
      animation: floatAnimation 5s ease-in-out infinite alternate;
      transform-origin: center;
    }
    .floating-item-delay-1 {
      animation: floatAnimation 7s ease-in-out infinite alternate;
      animation-delay: 1.5s;
      transform-origin: center;
    }
    .floating-item-delay-2 {
      animation: floatAnimation 6s ease-in-out infinite alternate;
      animation-delay: 3s;
      transform-origin: center;
    }
    @keyframes floatAnimation {
      0% { transform: translateY(0px) rotate(0deg); }
      50% { transform: translateY(-12px) rotate(3deg); }
      100% { transform: translateY(-24px) rotate(-3deg); }
    }
    .marquee-group {
      animation: marqueeText 25s linear infinite;
    }
    @keyframes marqueeText {
      0% { transform: translateX(0); }
      100% { transform: translateX(-650px); }
    }
    .flying-bird {
      animation: birdFly 15s linear infinite;
    }
    .flying-bird-delay {
      animation: birdFly 20s linear infinite;
      animation-delay: 4s;
    }
    @keyframes birdFly {
      0% { transform: translate(-50px, 90px); }
      100% { transform: translate(950px, 50px); }
    }
    .floating-cloud {
      animation: cloudFloat 26s linear infinite;
    }
    @keyframes cloudFloat {
      0% { transform: translateX(-150px); }
      100% { transform: translateX(950px); }
    }
  </style>
</svg>