<svg xmlns="http://www.w3.org/2000/svg" viewBox="0 0 900 1080" width="900" height="1080" style="border-radius:18px;overflow:hidden">
  <defs>
    <!-- Dark Space Synthwave Sky -->
    <linearGradient id="spaceSky" x1="0" y1="0" x2="0" y2="1">
      <stop offset="0%" stop-color="#05010c"/>
      <stop offset="50%" stop-color="#140628"/>
      <stop offset="100%" stop-color="#2a0845"/>
    </linearGradient>
    
    <!-- Neon Synthwave Sun -->
    <linearGradient id="synthSun" x1="0" y1="0" x2="0" y2="1">
      <stop offset="0%" stop-color="#f72585"/>
      <stop offset="40%" stop-color="#b5179e"/>
      <stop offset="70%" stop-color="#7209b7"/>
      <stop offset="100%" stop-color="#3f0764"/>
    </linearGradient>

    <!-- Mountain wireframe glow gradient -->
    <linearGradient id="mntGrad" x1="0" y1="0" x2="0" y2="1">
      <stop offset="0%" stop-color="rgba(0, 240, 255, 0.15)"/>
      <stop offset="100%" stop-color="rgba(12, 6, 24, 0)"/>
    </linearGradient>

    <!-- Retro Sun Horizontal Lines Mask -->
    <mask id="sunMask">
      <rect width="900" height="400" fill="#fff" />
      <g fill="#000">
        <rect x="0" y="160" width="900" height="3" />
        <rect x="0" y="174" width="900" height="4" />
        <rect x="0" y="190" width="900" height="6" />
        <rect x="0" y="208" width="900" height="8" />
        <rect x="0" y="228" width="900" height="11" />
        <rect x="0" y="250" width="900" height="15" />
      </g>
    </mask>

    <linearGradient id="termBorderGrad" x1="0" y1="0" x2="1" y2="1">
      <stop offset="0%" stop-color="#ff007f" stop-opacity="0.8"/>
      <stop offset="50%" stop-color="#9d4edd" stop-opacity="0.3"/>
      <stop offset="100%" stop-color="#00f0ff" stop-opacity="0.8"/>
    </linearGradient>

    <filter id="neonGlow">
      <feGaussianBlur stdDeviation="3" result="coloredBlur"/>
      <feMerge>
        <feMergeNode in="coloredBlur"/>
        <feMergeNode in="SourceGraphic"/>
      </feMerge>
    </filter>

    <filter id="sunGlow">
      <feGaussianBlur stdDeviation="8" result="blur"/>
      <feMerge>
        <feMergeNode in="blur"/>
        <feMergeNode in="SourceGraphic"/>
      </feMerge>
    </filter>

    <pattern id="scanlines" width="4" height="4" patternUnits="userSpaceOnUse">
      <rect width="4" height="2" fill="rgba(0, 0, 0, 0.12)" />
    </pattern>
  </defs>

  <!-- ════ BACKGROUND & RETRO SUN ════ -->
  <rect width="900" height="1080" fill="url(#spaceSky)" />
  <circle class="star" cx="594.0" cy="68.0" r="1.5" fill="#fff" opacity="0.20" style="animation-delay:0.0s"/><circle class="star" cx="288.0" cy="136.0" r="0.8" fill="#fff" opacity="0.32" style="animation-delay:0.3s"/><circle class="star" cx="882.0" cy="204.0" r="0.8" fill="#fff" opacity="0.44" style="animation-delay:0.6s"/><circle class="star" cx="576.0" cy="22.0" r="0.8" fill="#fff" opacity="0.56" style="animation-delay:0.9s"/><circle class="star" cx="270.0" cy="90.0" r="0.8" fill="#fff" opacity="0.68" style="animation-delay:1.2s"/><circle class="star" cx="864.0" cy="158.0" r="1.5" fill="#fff" opacity="0.80" style="animation-delay:1.5s"/><circle class="star" cx="558.0" cy="226.0" r="0.8" fill="#fff" opacity="0.20" style="animation-delay:1.8s"/><circle class="star" cx="252.0" cy="44.0" r="0.8" fill="#fff" opacity="0.32" style="animation-delay:2.1s"/><circle class="star" cx="846.0" cy="112.0" r="0.8" fill="#fff" opacity="0.44" style="animation-delay:2.4s"/><circle class="star" cx="540.0" cy="180.0" r="0.8" fill="#fff" opacity="0.56" style="animation-delay:2.7s"/><circle class="star" cx="234.0" cy="248.0" r="1.5" fill="#fff" opacity="0.68" style="animation-delay:3.0s"/><circle class="star" cx="828.0" cy="66.0" r="0.8" fill="#fff" opacity="0.80" style="animation-delay:3.3s"/><circle class="star" cx="522.0" cy="134.0" r="0.8" fill="#fff" opacity="0.20" style="animation-delay:3.6s"/><circle class="star" cx="216.0" cy="202.0" r="0.8" fill="#fff" opacity="0.32" style="animation-delay:3.9s"/><circle class="star" cx="810.0" cy="20.0" r="0.8" fill="#fff" opacity="0.44" style="animation-delay:0.2s"/><circle class="star" cx="504.0" cy="88.0" r="1.5" fill="#fff" opacity="0.56" style="animation-delay:0.5s"/><circle class="star" cx="198.0" cy="156.0" r="0.8" fill="#fff" opacity="0.68" style="animation-delay:0.8s"/><circle class="star" cx="792.0" cy="224.0" r="0.8" fill="#fff" opacity="0.80" style="animation-delay:1.1s"/><circle class="star" cx="486.0" cy="42.0" r="0.8" fill="#fff" opacity="0.20" style="animation-delay:1.4s"/><circle class="star" cx="180.0" cy="110.0" r="0.8" fill="#fff" opacity="0.32" style="animation-delay:1.7s"/><circle class="star" cx="774.0" cy="178.0" r="1.5" fill="#fff" opacity="0.44" style="animation-delay:2.0s"/><circle class="star" cx="468.0" cy="246.0" r="0.8" fill="#fff" opacity="0.56" style="animation-delay:2.3s"/><circle class="star" cx="162.0" cy="64.0" r="0.8" fill="#fff" opacity="0.68" style="animation-delay:2.6s"/><circle class="star" cx="756.0" cy="132.0" r="0.8" fill="#fff" opacity="0.80" style="animation-delay:2.9s"/><circle class="star" cx="450.0" cy="200.0" r="0.8" fill="#fff" opacity="0.20" style="animation-delay:3.2s"/><circle class="star" cx="144.0" cy="18.0" r="1.5" fill="#fff" opacity="0.32" style="animation-delay:3.5s"/><circle class="star" cx="738.0" cy="86.0" r="0.8" fill="#fff" opacity="0.44" style="animation-delay:3.8s"/><circle class="star" cx="432.0" cy="154.0" r="0.8" fill="#fff" opacity="0.56" style="animation-delay:0.1s"/><circle class="star" cx="126.0" cy="222.0" r="0.8" fill="#fff" opacity="0.68" style="animation-delay:0.4s"/><circle class="star" cx="720.0" cy="40.0" r="0.8" fill="#fff" opacity="0.80" style="animation-delay:0.7s"/><circle class="star" cx="414.0" cy="108.0" r="1.5" fill="#fff" opacity="0.20" style="animation-delay:1.0s"/><circle class="star" cx="108.0" cy="176.0" r="0.8" fill="#fff" opacity="0.32" style="animation-delay:1.3s"/><circle class="star" cx="702.0" cy="244.0" r="0.8" fill="#fff" opacity="0.44" style="animation-delay:1.6s"/><circle class="star" cx="396.0" cy="62.0" r="0.8" fill="#fff" opacity="0.56" style="animation-delay:1.9s"/><circle class="star" cx="90.0" cy="130.0" r="0.8" fill="#fff" opacity="0.68" style="animation-delay:2.2s"/><circle class="star" cx="684.0" cy="198.0" r="1.5" fill="#fff" opacity="0.80" style="animation-delay:2.5s"/><circle class="star" cx="378.0" cy="16.0" r="0.8" fill="#fff" opacity="0.20" style="animation-delay:2.8s"/><circle class="star" cx="72.0" cy="84.0" r="0.8" fill="#fff" opacity="0.32" style="animation-delay:3.1s"/><circle class="star" cx="666.0" cy="152.0" r="0.8" fill="#fff" opacity="0.44" style="animation-delay:3.4s"/><circle class="star" cx="360.0" cy="220.0" r="0.8" fill="#fff" opacity="0.56" style="animation-delay:3.7s"/><circle class="star" cx="54.0" cy="38.0" r="1.5" fill="#fff" opacity="0.68" style="animation-delay:0.0s"/><circle class="star" cx="648.0" cy="106.0" r="0.8" fill="#fff" opacity="0.80" style="animation-delay:0.3s"/><circle class="star" cx="342.0" cy="174.0" r="0.8" fill="#fff" opacity="0.20" style="animation-delay:0.6s"/><circle class="star" cx="36.0" cy="242.0" r="0.8" fill="#fff" opacity="0.32" style="animation-delay:0.9s"/><circle class="star" cx="630.0" cy="60.0" r="0.8" fill="#fff" opacity="0.44" style="animation-delay:1.2s"/><circle class="star" cx="324.0" cy="128.0" r="1.5" fill="#fff" opacity="0.56" style="animation-delay:1.5s"/><circle class="star" cx="18.0" cy="196.0" r="0.8" fill="#fff" opacity="0.68" style="animation-delay:1.8s"/><circle class="star" cx="612.0" cy="14.0" r="0.8" fill="#fff" opacity="0.80" style="animation-delay:2.1s"/><circle class="star" cx="306.0" cy="82.0" r="0.8" fill="#fff" opacity="0.20" style="animation-delay:2.4s"/><circle class="star" cx="0.0" cy="150.0" r="0.8" fill="#fff" opacity="0.32" style="animation-delay:2.7s"/><circle class="star" cx="594.0" cy="218.0" r="1.5" fill="#fff" opacity="0.44" style="animation-delay:3.0s"/><circle class="star" cx="288.0" cy="36.0" r="0.8" fill="#fff" opacity="0.56" style="animation-delay:3.3s"/><circle class="star" cx="882.0" cy="104.0" r="0.8" fill="#fff" opacity="0.68" style="animation-delay:3.6s"/><circle class="star" cx="576.0" cy="172.0" r="0.8" fill="#fff" opacity="0.80" style="animation-delay:3.9s"/><circle class="star" cx="270.0" cy="240.0" r="0.8" fill="#fff" opacity="0.20" style="animation-delay:0.2s"/><circle class="star" cx="864.0" cy="58.0" r="1.5" fill="#fff" opacity="0.32" style="animation-delay:0.5s"/><circle class="star" cx="558.0" cy="126.0" r="0.8" fill="#fff" opacity="0.44" style="animation-delay:0.8s"/><circle class="star" cx="252.0" cy="194.0" r="0.8" fill="#fff" opacity="0.56" style="animation-delay:1.1s"/><circle class="star" cx="846.0" cy="12.0" r="0.8" fill="#fff" opacity="0.68" style="animation-delay:1.4s"/><circle class="star" cx="540.0" cy="80.0" r="0.8" fill="#fff" opacity="0.80" style="animation-delay:1.7s"/>

  <!-- Sun sitting on the horizon -->
  <circle cx="450" cy="170" r="100" fill="url(#synthSun)" filter="url(#sunGlow)" mask="url(#sunMask)" />
  <line x1="0" y1="260" x2="900" y2="260" stroke="#ff007f" stroke-width="2" filter="url(#neonGlow)" />

  <!-- Neon wireframe mountains -->
  
    <polygon points="-61.3,260 8.7,216.0 78.7,260"
      fill="url(#mntGrad)" stroke="#00f0ff" stroke-width="1.5" opacity="0.4" />
    <line x1="8.7" y1="216.0" x2="8.7" y2="260" stroke="#00f0ff" stroke-width="1" opacity="0.25" stroke-dasharray="2 3" />
    <polygon points="-38.0,260 26.0,219.3 90.0,260"
      fill="url(#mntGrad)" stroke="#00f0ff" stroke-width="1.5" opacity="0.4" />
    <line x1="26.0" y1="219.3" x2="26.0" y2="260" stroke="#00f0ff" stroke-width="1" opacity="0.25" stroke-dasharray="2 3" />
    <polygon points="-17.7,260 43.3,220.9 104.3,260"
      fill="url(#mntGrad)" stroke="#00f0ff" stroke-width="1.5" opacity="0.4" />
    <line x1="43.3" y1="220.9" x2="43.3" y2="260" stroke="#00f0ff" stroke-width="1" opacity="0.25" stroke-dasharray="2 3" />
    <polygon points="11.6,260 60.6,231.9 109.6,260"
      fill="url(#mntGrad)" stroke="#00f0ff" stroke-width="1.5" opacity="0.4" />
    <line x1="60.6" y1="231.9" x2="60.6" y2="260" stroke="#00f0ff" stroke-width="1" opacity="0.25" stroke-dasharray="2 3" />
    <polygon points="31.9,260 77.9,236.9 123.9,260"
      fill="url(#mntGrad)" stroke="#00f0ff" stroke-width="1.5" opacity="0.4" />
    <line x1="77.9" y1="236.9" x2="77.9" y2="260" stroke="#00f0ff" stroke-width="1" opacity="0.25" stroke-dasharray="2 3" />
    <polygon points="49.2,260 95.2,236.9 141.2,260"
      fill="url(#mntGrad)" stroke="#00f0ff" stroke-width="1.5" opacity="0.4" />
    <line x1="95.2" y1="236.9" x2="95.2" y2="260" stroke="#00f0ff" stroke-width="1" opacity="0.25" stroke-dasharray="2 3" />
    <polygon points="71.8,260 129.8,223.2 187.8,260"
      fill="url(#mntGrad)" stroke="#00f0ff" stroke-width="1.5" opacity="0.4" />
    <line x1="129.8" y1="223.2" x2="129.8" y2="260" stroke="#00f0ff" stroke-width="1" opacity="0.25" stroke-dasharray="2 3" />
    <polygon points="167.3,260 216.3,231.9 265.3,260"
      fill="url(#mntGrad)" stroke="#00f0ff" stroke-width="1.5" opacity="0.4" />
    <line x1="216.3" y1="231.9" x2="216.3" y2="260" stroke="#00f0ff" stroke-width="1" opacity="0.25" stroke-dasharray="2 3" />
    <polygon points="181.7,260 233.7,228.7 285.7,260"
      fill="url(#mntGrad)" stroke="#00f0ff" stroke-width="1.5" opacity="0.4" />
    <line x1="233.7" y1="228.7" x2="233.7" y2="260" stroke="#00f0ff" stroke-width="1" opacity="0.25" stroke-dasharray="2 3" />
    <polygon points="193.0,260 251.0,223.2 309.0,260"
      fill="url(#mntGrad)" stroke="#00f0ff" stroke-width="1.5" opacity="0.4" />
    <line x1="251.0" y1="223.2" x2="251.0" y2="260" stroke="#00f0ff" stroke-width="1" opacity="0.25" stroke-dasharray="2 3" />
    <polygon points="225.3,260 268.3,243.5 311.3,260"
      fill="url(#mntGrad)" stroke="#00f0ff" stroke-width="1.5" opacity="0.4" />
    <line x1="268.3" y1="243.5" x2="268.3" y2="260" stroke="#00f0ff" stroke-width="1" opacity="0.25" stroke-dasharray="2 3" />
    <polygon points="398.3,260 441.3,243.5 484.3,260"
      fill="url(#mntGrad)" stroke="#00f0ff" stroke-width="1.5" opacity="0.4" />
    <line x1="441.3" y1="243.5" x2="441.3" y2="260" stroke="#00f0ff" stroke-width="1" opacity="0.25" stroke-dasharray="2 3" />
    <polygon points="412.7,260 458.7,236.9 504.7,260"
      fill="url(#mntGrad)" stroke="#00f0ff" stroke-width="1.5" opacity="0.4" />
    <line x1="458.7" y1="236.9" x2="458.7" y2="260" stroke="#00f0ff" stroke-width="1" opacity="0.25" stroke-dasharray="2 3" />
    <polygon points="565.4,260 614.4,231.9 663.4,260"
      fill="url(#mntGrad)" stroke="#00f0ff" stroke-width="1.5" opacity="0.4" />
    <line x1="614.4" y1="231.9" x2="614.4" y2="260" stroke="#00f0ff" stroke-width="1" opacity="0.25" stroke-dasharray="2 3" />
    <polygon points="576.7,260 631.7,225.3 686.7,260"
      fill="url(#mntGrad)" stroke="#00f0ff" stroke-width="1.5" opacity="0.4" />
    <line x1="631.7" y1="225.3" x2="631.7" y2="260" stroke="#00f0ff" stroke-width="1" opacity="0.25" stroke-dasharray="2 3" />
    <polygon points="606.0,260 649.0,243.5 692.0,260"
      fill="url(#mntGrad)" stroke="#00f0ff" stroke-width="1.5" opacity="0.4" />
    <line x1="649.0" y1="243.5" x2="649.0" y2="260" stroke="#00f0ff" stroke-width="1" opacity="0.25" stroke-dasharray="2 3" />
    <polygon points="584.3,260 666.3,211.1 748.3,260"
      fill="url(#mntGrad)" stroke="#00f0ff" stroke-width="1.5" opacity="0.4" />
    <line x1="666.3" y1="211.1" x2="666.3" y2="260" stroke="#00f0ff" stroke-width="1" opacity="0.25" stroke-dasharray="2 3" />
    <polygon points="607.7,260 683.7,213.3 759.7,260"
      fill="url(#mntGrad)" stroke="#00f0ff" stroke-width="1.5" opacity="0.4" />
    <line x1="683.7" y1="213.3" x2="683.7" y2="260" stroke="#00f0ff" stroke-width="1" opacity="0.25" stroke-dasharray="2 3" />
    <polygon points="652.0,260 701.0,231.9 750.0,260"
      fill="url(#mntGrad)" stroke="#00f0ff" stroke-width="1.5" opacity="0.4" />
    <line x1="701.0" y1="231.9" x2="701.0" y2="260" stroke="#00f0ff" stroke-width="1" opacity="0.25" stroke-dasharray="2 3" />
    <polygon points="669.3,260 718.3,231.9 767.3,260"
      fill="url(#mntGrad)" stroke="#00f0ff" stroke-width="1.5" opacity="0.4" />
    <line x1="718.3" y1="231.9" x2="718.3" y2="260" stroke="#00f0ff" stroke-width="1" opacity="0.25" stroke-dasharray="2 3" />
    <polygon points="686.6,260 735.6,231.9 784.6,260"
      fill="url(#mntGrad)" stroke="#00f0ff" stroke-width="1.5" opacity="0.4" />
    <line x1="735.6" y1="231.9" x2="735.6" y2="260" stroke="#00f0ff" stroke-width="1" opacity="0.25" stroke-dasharray="2 3" />
    <polygon points="718.2,260 770.2,228.7 822.2,260"
      fill="url(#mntGrad)" stroke="#00f0ff" stroke-width="1.5" opacity="0.4" />
    <line x1="770.2" y1="228.7" x2="770.2" y2="260" stroke="#00f0ff" stroke-width="1" opacity="0.25" stroke-dasharray="2 3" />
    <polygon points="735.5,260 787.5,228.7 839.5,260"
      fill="url(#mntGrad)" stroke="#00f0ff" stroke-width="1.5" opacity="0.4" />
    <line x1="787.5" y1="228.7" x2="787.5" y2="260" stroke="#00f0ff" stroke-width="1" opacity="0.25" stroke-dasharray="2 3" />
    <polygon points="731.8,260 804.8,214.3 877.8,260"
      fill="url(#mntGrad)" stroke="#00f0ff" stroke-width="1.5" opacity="0.4" />
    <line x1="804.8" y1="214.3" x2="804.8" y2="260" stroke="#00f0ff" stroke-width="1" opacity="0.25" stroke-dasharray="2 3" />
    <polygon points="779.1,260 822.1,243.5 865.1,260"
      fill="url(#mntGrad)" stroke="#00f0ff" stroke-width="1.5" opacity="0.4" />
    <line x1="822.1" y1="243.5" x2="822.1" y2="260" stroke="#00f0ff" stroke-width="1" opacity="0.25" stroke-dasharray="2 3" />
    <polygon points="781.4,260 839.4,223.2 897.4,260"
      fill="url(#mntGrad)" stroke="#00f0ff" stroke-width="1.5" opacity="0.4" />
    <line x1="839.4" y1="223.2" x2="839.4" y2="260" stroke="#00f0ff" stroke-width="1" opacity="0.25" stroke-dasharray="2 3" />
    <polygon points="780.7,260 856.7,213.3 932.7,260"
      fill="url(#mntGrad)" stroke="#00f0ff" stroke-width="1.5" opacity="0.4" />
    <line x1="856.7" y1="213.3" x2="856.7" y2="260" stroke="#00f0ff" stroke-width="1" opacity="0.25" stroke-dasharray="2 3" />
    <polygon points="585.0,260 874.0,183.0 1163.0,260"
      fill="url(#mntGrad)" stroke="#00f0ff" stroke-width="1.5" opacity="0.4" />
    <line x1="874.0" y1="183.0" x2="874.0" y2="260" stroke="#00f0ff" stroke-width="1" opacity="0.25" stroke-dasharray="2 3" />
    <polygon points="833.3,260 891.3,223.2 949.3,260"
      fill="url(#mntGrad)" stroke="#00f0ff" stroke-width="1.5" opacity="0.4" />
    <line x1="891.3" y1="223.2" x2="891.3" y2="260" stroke="#00f0ff" stroke-width="1" opacity="0.25" stroke-dasharray="2 3" />

  <!-- perspective grid floor -->
  <line x1="100" y1="260" x2="-650" y2="350" stroke="#ff007f" stroke-width="1.2" opacity="0.35" />
  <line x1="135" y1="260" x2="-540" y2="350" stroke="#ff007f" stroke-width="1.2" opacity="0.35" />
  <line x1="170" y1="260" x2="-430" y2="350" stroke="#ff007f" stroke-width="1.2" opacity="0.35" />
  <line x1="205" y1="260" x2="-320" y2="350" stroke="#ff007f" stroke-width="1.2" opacity="0.35" />
  <line x1="240" y1="260" x2="-210" y2="350" stroke="#ff007f" stroke-width="1.2" opacity="0.35" />
  <line x1="275" y1="260" x2="-100" y2="350" stroke="#ff007f" stroke-width="1.2" opacity="0.35" />
  <line x1="310" y1="260" x2="10" y2="350" stroke="#ff007f" stroke-width="1.2" opacity="0.35" />
  <line x1="345" y1="260" x2="120" y2="350" stroke="#ff007f" stroke-width="1.2" opacity="0.35" />
  <line x1="380" y1="260" x2="230" y2="350" stroke="#ff007f" stroke-width="1.2" opacity="0.35" />
  <line x1="415" y1="260" x2="340" y2="350" stroke="#ff007f" stroke-width="1.2" opacity="0.35" />
  <line x1="450" y1="260" x2="450" y2="350" stroke="#ff007f" stroke-width="1.2" opacity="0.35" />
  <line x1="485" y1="260" x2="560" y2="350" stroke="#ff007f" stroke-width="1.2" opacity="0.35" />
  <line x1="520" y1="260" x2="670" y2="350" stroke="#ff007f" stroke-width="1.2" opacity="0.35" />
  <line x1="555" y1="260" x2="780" y2="350" stroke="#ff007f" stroke-width="1.2" opacity="0.35" />
  <line x1="590" y1="260" x2="890" y2="350" stroke="#ff007f" stroke-width="1.2" opacity="0.35" />
  <line x1="625" y1="260" x2="1000" y2="350" stroke="#ff007f" stroke-width="1.2" opacity="0.35" />
  <line x1="660" y1="260" x2="1110" y2="350" stroke="#ff007f" stroke-width="1.2" opacity="0.35" />
  <line x1="695" y1="260" x2="1220" y2="350" stroke="#ff007f" stroke-width="1.2" opacity="0.35" />
  <line x1="730" y1="260" x2="1330" y2="350" stroke="#ff007f" stroke-width="1.2" opacity="0.35" />
  <line x1="765" y1="260" x2="1440" y2="350" stroke="#ff007f" stroke-width="1.2" opacity="0.35" />
  <line x1="800" y1="260" x2="1550" y2="350" stroke="#ff007f" stroke-width="1.2" opacity="0.35" />
  <line x1="0" y1="260.0" x2="900" y2="260.0" stroke="#ff007f" stroke-width="1.2" opacity="0.10" />
  <line x1="0" y1="263.6" x2="900" y2="263.6" stroke="#ff007f" stroke-width="1.2" opacity="0.17" />
  <line x1="0" y1="272.5" x2="900" y2="272.5" stroke="#ff007f" stroke-width="1.2" opacity="0.25" />
  <line x1="0" y1="285.8" x2="900" y2="285.8" stroke="#ff007f" stroke-width="1.2" opacity="0.33" />
  <line x1="0" y1="303.4" x2="900" y2="303.4" stroke="#ff007f" stroke-width="1.2" opacity="0.40" />
  <line x1="0" y1="324.8" x2="900" y2="324.8" stroke="#ff007f" stroke-width="1.2" opacity="0.47" />
  <line x1="0" y1="350.0" x2="900" y2="350.0" stroke="#ff007f" stroke-width="1.2" opacity="0.55" />
  <rect y="260" width="900" height="90" fill="url(#mntGrad)" opacity="0.4" />

  <!-- Scanlines retro CRT effect over entire backdrop -->
  <rect width="900" height="350" fill="url(#scanlines)" opacity="0.6" />

  <!-- ════ macOS TERMINAL WINDOW ════ -->
  <g transform="translate(30, 370)">
    <!-- Terminal Background Box -->
    <rect width="840" height="660" rx="12" fill="rgba(12, 6, 24, 0.88)" stroke="url(#termBorderGrad)" stroke-width="2" filter="url(#neonGlow)"/>
    
    <!-- Terminal Header / Title Bar -->
    <path d="M 0,12 A 12,12 0 0 1 12,0 L 828,0 A 12,12 0 0 1 840,12 L 840,36 L 0,36 Z" fill="rgba(20, 12, 38, 0.95)" />
    
    <!-- Window Controls (traffic lights) -->
    <circle cx="20" cy="18" r="6" fill="#ff5f56" />
    <circle cx="38" cy="18" r="6" fill="#ffbd2e" />
    <circle cx="56" cy="18" r="6" fill="#27c93f" />

    <text x="420" y="22" font-family="monospace" font-size="12" fill="#9d4edd" font-weight="bold" text-anchor="middle">dasmat@gitworld:~ (zsh)</text>

    <!-- Shell Session Typing Out -->
    <text x="25" y="65" font-family="monospace" font-size="14" fill="#e2e8f0">
      <tspan fill="#ff007f">dasmat@gitworld</tspan> <tspan fill="#64748b">~ %</tspan> gitworld --profile
    </text>
    <rect class="cursor" x="350" y="52" width="8" height="15" fill="#00f0ff" />

    <!-- ──────────────────────────────────────── -->
    <!-- LEFT PANEL: Profile/Neofetch Details -->
    <!-- ──────────────────────────────────────── -->
    <g transform="translate(25, 100)">
      <text font-family="monospace" font-size="13" fill="#e2e8f0">
        <tspan x="0" y="0" fill="#f43f5e" font-weight="bold">SYSTEM INFO</tspan>
        <tspan x="0" y="16" fill="#64748b">───────────</tspan>
        <tspan x="0" y="38" fill="#38bdf8">User:</tspan>       dasmat (DevOps Explorer)
        <tspan x="0" y="60" fill="#38bdf8">Host:</tspan>       github.com/Dasmat13
        <tspan x="0" y="82" fill="#38bdf8">Kernel:</tspan>     Kubernetes &amp; Cloud-Native
        <tspan x="0" y="104" fill="#38bdf8">Uptime:</tspan>     424 Contributions
        <tspan x="0" y="126" fill="#38bdf8">Location:</tspan>   Kolkata, India
        <tspan x="0" y="148" fill="#38bdf8">Biome:</tspan>      JS Kingdom
        <tspan x="0" y="170" fill="#38bdf8">Weather:</tspan>    RAIN (live)
      </text>
    </g>

    <!-- ──────────────────────────────────────── -->
    <!-- RIGHT PANEL: CLI Stats HUD -->
    <!-- ──────────────────────────────────────── -->
    <g transform="translate(430, 100)">
      <text font-family="monospace" font-size="13" fill="#e2e8f0">
        <tspan x="0" y="0" fill="#f43f5e" font-weight="bold">SYSTEM RESOURCE BARS</tspan>
        <tspan x="0" y="16" fill="#64748b">────────────────────</tspan>
        
        <tspan x="0" y="42" fill="#38bdf8">STREAK   </tspan> <tspan fill="#00f0ff">[█████░░░░░░░░░░░░░] 30%</tspan> <tspan fill="#64748b">[9/30 days]</tspan>
        <tspan x="0" y="72" fill="#38bdf8">COMMITS  </tspan> <tspan fill="#00f0ff">[████████░░░░░░░░░░] 42%</tspan> <tspan fill="#64748b">[424/1000]</tspan>
        
        <tspan x="0" y="120" fill="#f43f5e" font-weight="bold">ENVIRONMENT STATUS</tspan>
        <tspan x="0" y="136" fill="#64748b">──────────────────</tspan>
        <tspan x="0" y="162" fill="#38bdf8">Atmosphere:</tspan> NIGHT / WMO:RAIN
      </text>
    </g>

    <!-- ──────────────────────────────────────── -->
    <!-- MIDDLE SECTION: Tech StackChips Outline -->
    <!-- ──────────────────────────────────────── -->
    <g transform="translate(0, 0)">
      <!-- Label -->
      <text x="25" y="315" font-family="monospace" font-size="13" fill="#f43f5e" font-weight="bold">CONFIGURED STACK MODULES</text>
      <line x1="25" y1="324" x2="815" y2="324" stroke="#64748b" stroke-width="1" />
      
      <!-- Tech stack chips -->
      
    <g>
      <rect x="60" y="724" width="168" height="28" rx="4" fill="none" stroke="#00f0ff" stroke-width="1" opacity="0.6"/>
      <text x="144" y="742" font-family="monospace" font-size="11.5" fill="#00f0ff" font-weight="bold" text-anchor="middle">Kubernetes</text>
    </g>
    <g>
      <rect x="260" y="724" width="168" height="28" rx="4" fill="none" stroke="#00f0ff" stroke-width="1" opacity="0.6"/>
      <text x="344" y="742" font-family="monospace" font-size="11.5" fill="#00f0ff" font-weight="bold" text-anchor="middle">Docker</text>
    </g>
    <g>
      <rect x="460" y="724" width="168" height="28" rx="4" fill="none" stroke="#00f0ff" stroke-width="1" opacity="0.6"/>
      <text x="544" y="742" font-family="monospace" font-size="11.5" fill="#00f0ff" font-weight="bold" text-anchor="middle">TypeScript</text>
    </g>
    <g>
      <rect x="660" y="724" width="168" height="28" rx="4" fill="none" stroke="#00f0ff" stroke-width="1" opacity="0.6"/>
      <text x="744" y="742" font-family="monospace" font-size="11.5" fill="#00f0ff" font-weight="bold" text-anchor="middle">Go</text>
    </g>
    <g>
      <rect x="60" y="764" width="168" height="28" rx="4" fill="none" stroke="#00f0ff" stroke-width="1" opacity="0.6"/>
      <text x="144" y="782" font-family="monospace" font-size="11.5" fill="#00f0ff" font-weight="bold" text-anchor="middle">Node.js</text>
    </g>
    <g>
      <rect x="260" y="764" width="168" height="28" rx="4" fill="none" stroke="#00f0ff" stroke-width="1" opacity="0.6"/>
      <text x="344" y="782" font-family="monospace" font-size="11.5" fill="#00f0ff" font-weight="bold" text-anchor="middle">Terraform</text>
    </g>
    <g>
      <rect x="460" y="764" width="168" height="28" rx="4" fill="none" stroke="#00f0ff" stroke-width="1" opacity="0.6"/>
      <text x="544" y="782" font-family="monospace" font-size="11.5" fill="#00f0ff" font-weight="bold" text-anchor="middle">Python</text>
    </g>
    <g>
      <rect x="660" y="764" width="168" height="28" rx="4" fill="none" stroke="#00f0ff" stroke-width="1" opacity="0.6"/>
      <text x="744" y="782" font-family="monospace" font-size="11.5" fill="#00f0ff" font-weight="bold" text-anchor="middle">AWS</text>
    </g>
    <g>
      <rect x="60" y="804" width="168" height="28" rx="4" fill="none" stroke="#00f0ff" stroke-width="1" opacity="0.6"/>
      <text x="144" y="822" font-family="monospace" font-size="11.5" fill="#00f0ff" font-weight="bold" text-anchor="middle">Linux</text>
    </g>
    <g>
      <rect x="260" y="804" width="168" height="28" rx="4" fill="none" stroke="#00f0ff" stroke-width="1" opacity="0.6"/>
      <text x="344" y="822" font-family="monospace" font-size="11.5" fill="#00f0ff" font-weight="bold" text-anchor="middle">Grafana</text>
    </g>
    <g>
      <rect x="460" y="804" width="168" height="28" rx="4" fill="none" stroke="#00f0ff" stroke-width="1" opacity="0.6"/>
      <text x="544" y="822" font-family="monospace" font-size="11.5" fill="#00f0ff" font-weight="bold" text-anchor="middle">Prometheus</text>
    </g>
    <g>
      <rect x="660" y="804" width="168" height="28" rx="4" fill="none" stroke="#00f0ff" stroke-width="1" opacity="0.6"/>
      <text x="744" y="822" font-family="monospace" font-size="11.5" fill="#00f0ff" font-weight="bold" text-anchor="middle">Backstage</text>
    </g>
    </g>

    <!-- ──────────────────────────────────────── -->
    <!-- BOTTOM SECTION: Quest Log Status -->
    <!-- ──────────────────────────────────────── -->
    <g transform="translate(25, 452)">
      <text font-family="monospace" font-size="13" fill="#f43f5e" font-weight="bold">ACTIVE PIPELINE JOBS (QUEST LOG)</text>
      <line x1="0" y1="9" x2="790" y2="9" stroke="#64748b" stroke-width="1" />

      <text font-family="monospace" font-size="12" fill="#e2e8f0">
        <tspan x="0" y="32" fill="#00f0ff">●</tspan><tspan fill="#e2e8f0">  lws-topology-scheduling ...... [</tspan><tspan fill="#00f0ff"> RUNNING </tspan><tspan fill="#e2e8f0">]</tspan>
        <tspan x="0" y="52" fill="#00f0ff">●</tspan><tspan fill="#e2e8f0">  KEP-893-composite-pod ........ [</tspan><tspan fill="#00f0ff"> RUNNING </tspan><tspan fill="#e2e8f0">]</tspan>
        <tspan x="0" y="72" fill="#ff007f">●</tspan><tspan fill="#e2e8f0">  gitworld-engine-core ......... [</tspan><tspan fill="#ff007f"> SUCCESS </tspan><tspan fill="#e2e8f0">]</tspan>
        <tspan x="0" y="92" fill="#ff007f">●</tspan><tspan fill="#e2e8f0">  realtime-weather-lookup ...... [</tspan><tspan fill="#ff007f"> SUCCESS </tspan><tspan fill="#e2e8f0">]</tspan>
        <tspan x="0" y="112" fill="#64748b">●</tspan><tspan fill="#64748b">  node-core-contributions ...... [ PENDING ]</tspan>
        <tspan x="0" y="132" fill="#64748b">●</tspan><tspan fill="#64748b">  backstage-plugin-ecosystem ... [ PENDING ]</tspan>
      </text>
    </g>

    <!-- tmux Status Bar at window bottom -->
    <rect x="0" y="626" width="840" height="34" fill="rgba(20, 12, 38, 0.95)" />
    <line x1="0" y1="626" x2="840" y2="626" stroke="rgba(255, 0, 127, 0.4)" stroke-width="1" />
    <text x="15" y="647" font-family="monospace" font-size="11" fill="#00f0ff">[0] 1:zsh* 2:weather(live) | Kolkata, IN</text>
    <text x="825" y="647" font-family="monospace" font-size="11" fill="#ff007f" text-anchor="end">SYS_TEMP: STABLE | 2026-07-13</text>
  </g>

  <!-- CRT scanlines over terminal -->
  <rect x="30" y="406" width="840" height="624" fill="url(#scanlines)" opacity="0.3" pointer-events="none" />

  <style>
    .star { animation: twinkle 3.s ease-in-out infinite alternate; }
    @keyframes twinkle { 0%{opacity:.1} 100%{opacity:1} }
    
    .cursor { animation: blink 1s step-end infinite; }
    @keyframes blink { 0%,100%{opacity:1} 50%{opacity:0} }
  </style>
</svg>