<svg xmlns="http://www.w3.org/2000/svg"
     viewBox="0 0 900 840" width="900" height="840"
     style="border-radius:16px;overflow:hidden">
  <defs>
    <linearGradient id="pcSky" x1="0" y1="0" x2="0" y2="1">
      <stop offset="0%"   stop-color="#020510"/>
      <stop offset="38%"  stop-color="#0a0f1e"/>
      <stop offset="100%" stop-color="#1a3a1a"/>
    </linearGradient>
    <linearGradient id="panelGrad" x1="0" y1="0" x2="0" y2="1">
      <stop offset="0%"   stop-color="rgba(0,0,0,0.68)"/>
      <stop offset="100%" stop-color="rgba(0,0,0,0.38)"/>
    </linearGradient>
    <filter id="glow">
      <feGaussianBlur in="SourceGraphic" stdDeviation="3" result="b"/>
      <feMerge><feMergeNode in="b"/><feMergeNode in="SourceGraphic"/></feMerge>
    </filter>
    <filter id="tglow">
      <feGaussianBlur in="SourceGraphic" stdDeviation="5" result="b"/>
      <feMerge><feMergeNode in="b"/><feMergeNode in="SourceGraphic"/></feMerge>
    </filter>
  </defs>

  <!-- Background sky -->
  <rect width="900" height="840" fill="url(#pcSky)"/>

  <!-- Stars -->
  <circle class="star" cx="594.0" cy="138.0" r="1.5" fill="#ffd700" style="animation-delay:0.0s"/>
  <circle class="star" cx="288.0" cy="276.0" r="0.8" fill="#ffd700" style="animation-delay:0.3s"/>
  <circle class="star" cx="882.0" cy="124.0" r="0.8" fill="#ffd700" style="animation-delay:0.6s"/>
  <circle class="star" cx="576.0" cy="262.0" r="0.8" fill="#ffd700" style="animation-delay:0.9s"/>
  <circle class="star" cx="270.0" cy="110.0" r="0.8" fill="#ffd700" style="animation-delay:1.2s"/>
  <circle class="star" cx="864.0" cy="248.0" r="1.5" fill="#ffd700" style="animation-delay:1.5s"/>
  <circle class="star" cx="558.0" cy="96.0" r="0.8" fill="#ffd700" style="animation-delay:1.8s"/>
  <circle class="star" cx="252.0" cy="234.0" r="0.8" fill="#ffd700" style="animation-delay:2.1s"/>
  <circle class="star" cx="846.0" cy="82.0" r="0.8" fill="#ffd700" style="animation-delay:2.4s"/>
  <circle class="star" cx="540.0" cy="220.0" r="0.8" fill="#ffd700" style="animation-delay:2.7s"/>
  <circle class="star" cx="234.0" cy="68.0" r="1.5" fill="#ffd700" style="animation-delay:3.0s"/>
  <circle class="star" cx="828.0" cy="206.0" r="0.8" fill="#ffd700" style="animation-delay:3.3s"/>
  <circle class="star" cx="522.0" cy="54.0" r="0.8" fill="#ffd700" style="animation-delay:3.6s"/>
  <circle class="star" cx="216.0" cy="192.0" r="0.8" fill="#ffd700" style="animation-delay:3.9s"/>
  <circle class="star" cx="810.0" cy="40.0" r="0.8" fill="#ffd700" style="animation-delay:0.2s"/>
  <circle class="star" cx="504.0" cy="178.0" r="1.5" fill="#ffd700" style="animation-delay:0.5s"/>
  <circle class="star" cx="198.0" cy="26.0" r="0.8" fill="#ffd700" style="animation-delay:0.8s"/>
  <circle class="star" cx="792.0" cy="164.0" r="0.8" fill="#ffd700" style="animation-delay:1.1s"/>
  <circle class="star" cx="486.0" cy="12.0" r="0.8" fill="#ffd700" style="animation-delay:1.4s"/>
  <circle class="star" cx="180.0" cy="150.0" r="0.8" fill="#ffd700" style="animation-delay:1.7s"/>
  <circle class="star" cx="774.0" cy="288.0" r="1.5" fill="#ffd700" style="animation-delay:2.0s"/>
  <circle class="star" cx="468.0" cy="136.0" r="0.8" fill="#ffd700" style="animation-delay:2.3s"/>
  <circle class="star" cx="162.0" cy="274.0" r="0.8" fill="#ffd700" style="animation-delay:2.6s"/>
  <circle class="star" cx="756.0" cy="122.0" r="0.8" fill="#ffd700" style="animation-delay:2.9s"/>
  <circle class="star" cx="450.0" cy="260.0" r="0.8" fill="#ffd700" style="animation-delay:3.2s"/>
  <circle class="star" cx="144.0" cy="108.0" r="1.5" fill="#ffd700" style="animation-delay:3.5s"/>
  <circle class="star" cx="738.0" cy="246.0" r="0.8" fill="#ffd700" style="animation-delay:3.8s"/>
  <circle class="star" cx="432.0" cy="94.0" r="0.8" fill="#ffd700" style="animation-delay:0.1s"/>
  <circle class="star" cx="126.0" cy="232.0" r="0.8" fill="#ffd700" style="animation-delay:0.4s"/>
  <circle class="star" cx="720.0" cy="80.0" r="0.8" fill="#ffd700" style="animation-delay:0.7s"/>
  <circle class="star" cx="414.0" cy="218.0" r="1.5" fill="#ffd700" style="animation-delay:1.0s"/>
  <circle class="star" cx="108.0" cy="66.0" r="0.8" fill="#ffd700" style="animation-delay:1.3s"/>
  <circle class="star" cx="702.0" cy="204.0" r="0.8" fill="#ffd700" style="animation-delay:1.6s"/>
  <circle class="star" cx="396.0" cy="52.0" r="0.8" fill="#ffd700" style="animation-delay:1.9s"/>
  <circle class="star" cx="90.0" cy="190.0" r="0.8" fill="#ffd700" style="animation-delay:2.2s"/>
  <circle class="star" cx="684.0" cy="38.0" r="1.5" fill="#ffd700" style="animation-delay:2.5s"/>
  <circle class="star" cx="378.0" cy="176.0" r="0.8" fill="#ffd700" style="animation-delay:2.8s"/>
  <circle class="star" cx="72.0" cy="24.0" r="0.8" fill="#ffd700" style="animation-delay:3.1s"/>
  <circle class="star" cx="666.0" cy="162.0" r="0.8" fill="#ffd700" style="animation-delay:3.4s"/>
  <circle class="star" cx="360.0" cy="10.0" r="0.8" fill="#ffd700" style="animation-delay:3.7s"/>
  <circle class="star" cx="54.0" cy="148.0" r="1.5" fill="#ffd700" style="animation-delay:0.0s"/>
  <circle class="star" cx="648.0" cy="286.0" r="0.8" fill="#ffd700" style="animation-delay:0.3s"/>
  <circle class="star" cx="342.0" cy="134.0" r="0.8" fill="#ffd700" style="animation-delay:0.6s"/>
  <circle class="star" cx="36.0" cy="272.0" r="0.8" fill="#ffd700" style="animation-delay:0.9s"/>
  <circle class="star" cx="630.0" cy="120.0" r="0.8" fill="#ffd700" style="animation-delay:1.2s"/>
  <circle class="star" cx="324.0" cy="258.0" r="1.5" fill="#ffd700" style="animation-delay:1.5s"/>
  <circle class="star" cx="18.0" cy="106.0" r="0.8" fill="#ffd700" style="animation-delay:1.8s"/>
  <circle class="star" cx="612.0" cy="244.0" r="0.8" fill="#ffd700" style="animation-delay:2.1s"/>
  <circle class="star" cx="306.0" cy="92.0" r="0.8" fill="#ffd700" style="animation-delay:2.4s"/>
  <circle class="star" cx="0.0" cy="230.0" r="0.8" fill="#ffd700" style="animation-delay:2.7s"/>
  <circle class="star" cx="594.0" cy="78.0" r="1.5" fill="#ffd700" style="animation-delay:3.0s"/>
  <circle class="star" cx="288.0" cy="216.0" r="0.8" fill="#ffd700" style="animation-delay:3.3s"/>
  <circle class="star" cx="882.0" cy="64.0" r="0.8" fill="#ffd700" style="animation-delay:3.6s"/>
  <circle class="star" cx="576.0" cy="202.0" r="0.8" fill="#ffd700" style="animation-delay:3.9s"/>
  <circle class="star" cx="270.0" cy="50.0" r="0.8" fill="#ffd700" style="animation-delay:0.2s"/>

  <!-- Celestial body -->
  <circle r="18" fill="#c8d0e0" filter="url(#glow)">
    <animateMotion dur="40s" repeatCount="indefinite"
      path="M -20,280 Q 450,-20 920,280"/>
  </circle>

  <!-- Skyline strip -->
  <rect x="0.0" y="269.6" width="16.3" height="30.4" fill="#f0c040" opacity="0.45" rx="1"/><rect x="17.3" y="271.9" width="16.3" height="28.1" fill="#f0c040" opacity="0.45" rx="1"/><rect x="34.6" y="273.0" width="16.3" height="27.0" fill="#f0c040" opacity="0.45" rx="1"/><rect x="51.9" y="280.6" width="16.3" height="19.4" fill="#f0c040" opacity="0.45" rx="1"/><rect x="69.2" y="284.0" width="16.3" height="16.0" fill="#f0c040" opacity="0.45" rx="1"/><rect x="86.5" y="284.0" width="16.3" height="16.0" fill="#f0c040" opacity="0.45" rx="1"/><rect x="121.2" y="274.5" width="16.3" height="25.5" fill="#f0c040" opacity="0.45" rx="1"/><rect x="207.7" y="280.6" width="16.3" height="19.4" fill="#f0c040" opacity="0.45" rx="1"/><rect x="225.0" y="278.3" width="16.3" height="21.7" fill="#f0c040" opacity="0.45" rx="1"/><rect x="242.3" y="274.5" width="16.3" height="25.5" fill="#f0c040" opacity="0.45" rx="1"/><rect x="259.6" y="288.6" width="16.3" height="11.4" fill="#f0c040" opacity="0.45" rx="1"/><rect x="432.7" y="288.6" width="16.3" height="11.4" fill="#f0c040" opacity="0.45" rx="1"/><rect x="450.0" y="284.0" width="16.3" height="16.0" fill="#f0c040" opacity="0.45" rx="1"/><rect x="605.8" y="280.6" width="16.3" height="19.4" fill="#f0c040" opacity="0.45" rx="1"/><rect x="623.1" y="276.1" width="16.3" height="23.9" fill="#f0c040" opacity="0.45" rx="1"/><rect x="640.4" y="288.6" width="16.3" height="11.4" fill="#f0c040" opacity="0.45" rx="1"/><rect x="657.7" y="266.2" width="16.3" height="33.8" fill="#f0c040" opacity="0.45" rx="1"/><rect x="675.0" y="267.7" width="16.3" height="32.3" fill="#f0c040" opacity="0.45" rx="1"/><rect x="692.3" y="280.6" width="16.3" height="19.4" fill="#f0c040" opacity="0.45" rx="1"/><rect x="709.6" y="280.6" width="16.3" height="19.4" fill="#f0c040" opacity="0.45" rx="1"/><rect x="726.9" y="280.6" width="16.3" height="19.4" fill="#f0c040" opacity="0.45" rx="1"/><rect x="761.5" y="278.3" width="16.3" height="21.7" fill="#f0c040" opacity="0.45" rx="1"/><rect x="778.8" y="278.3" width="16.3" height="21.7" fill="#f0c040" opacity="0.45" rx="1"/><rect x="796.2" y="268.5" width="16.3" height="31.5" fill="#f0c040" opacity="0.45" rx="1"/><rect x="813.5" y="288.6" width="16.3" height="11.4" fill="#f0c040" opacity="0.45" rx="1"/><rect x="830.8" y="274.5" width="16.3" height="25.5" fill="#f0c040" opacity="0.45" rx="1"/><rect x="848.1" y="267.7" width="16.3" height="32.3" fill="#f0c040" opacity="0.45" rx="1"/><rect x="865.4" y="246.8" width="16.3" height="53.2" fill="#f0c040" opacity="0.45" rx="1"/><rect x="882.7" y="274.5" width="16.3" height="25.5" fill="#f0c040" opacity="0.45" rx="1"/>
  <rect x="0" y="300" width="900" height="12" fill="#1a3a1a" opacity="0.5"/>

  <!-- ══════════════════════════════════════════════════════ -->
  <!--  HERO                                                  -->
  <!-- ══════════════════════════════════════════════════════ -->
  <text x="450" y="72" font-family="monospace" font-size="10" fill="#ffd700"
    text-anchor="middle" opacity="0.55" letter-spacing="6">[ PLAYER ONE ]</text>

  <text class="heroName" x="450" y="136" font-family="monospace" font-size="42"
    fill="#f0c040" text-anchor="middle" font-weight="bold"
    filter="url(#tglow)">Hi! I'm Dasmat 👋</text>

  <text x="450" y="170" font-family="monospace" font-size="13" fill="#ffd700"
    text-anchor="middle" opacity="0.85">DevOps &amp; Cloud-Native Explorer · Full-Stack Developer · Open Source Contributor</text>

  <rect class="cursor" x="640" y="153" width="10" height="3" fill="#f0c040"/>

  <!-- ══════════════════════════════════════════════════════ -->
  <!--  ABOUT ME panel                                        -->
  <!-- ══════════════════════════════════════════════════════ -->
  <rect x="18" y="190" width="864" height="98" rx="8"
    fill="url(#panelGrad)" stroke="#e8a020" stroke-width="1"/>
  <text x="34" y="212" font-family="monospace" font-size="9"
    fill="#f0c040" opacity="0.65" letter-spacing="4">◈ ABOUT ME</text>
  <text x="34" y="234" font-family="monospace" font-size="12" fill="#ffd700">🚀  Core: DevOps automation · Cloud-Native architecture · Full-stack Web Development</text>
  <text x="34" y="255" font-family="monospace" font-size="12" fill="#ffd700">🌱  Contributing to: Kubernetes SIGs · Node.js Core · Express.js · Backstage</text>
  <text x="34" y="276" font-family="monospace" font-size="12" fill="#ffd700">📫  mey37056@gmail.com     ⚡  Loves container orchestration &amp; automated healing systems</text>

  <!-- ══════════════════════════════════════════════════════ -->
  <!--  CURRENT WORLD panel                                   -->
  <!-- ══════════════════════════════════════════════════════ -->
  <rect x="18" y="325" width="864" height="58" rx="8"
    fill="url(#panelGrad)" stroke="#e8a020" stroke-width="1"/>
  <text x="34" y="346" font-family="monospace" font-size="9"
    fill="#f0c040" opacity="0.65" letter-spacing="4">◈ CURRENT WORLD STATE</text>
  <text x="34" y="368" font-family="monospace" font-size="13" fill="#ffd700">
    🌍 <tspan fill="#f0c040" font-weight="bold">JS Kingdom</tspan>
    <tspan dx="24">🌙 </tspan><tspan fill="#f0c040" font-weight="bold">night</tspan>
    <tspan dx="24">🌦️ </tspan><tspan fill="#f0c040" font-weight="bold">rain</tspan>
    <tspan dx="24">🔥 </tspan><tspan fill="#f0c040" font-weight="bold">9d streak</tspan>
    <tspan dx="24">🏗️ </tspan><tspan fill="#f0c040" font-weight="bold">424 commits</tspan>
  </text>

  <!-- ══════════════════════════════════════════════════════ -->
  <!--  TECH STACK panel                                      -->
  <!-- ══════════════════════════════════════════════════════ -->
  <rect x="18" y="398" width="864" height="110" rx="8"
    fill="url(#panelGrad)" stroke="#e8a020" stroke-width="1"/>
  <text x="34" y="420" font-family="monospace" font-size="9"
    fill="#f0c040" opacity="0.65" letter-spacing="4">◈ TECH STACK &amp; SKILLS</text>
  
  <rect x="28" y="450" width="126" height="26" rx="4" fill="#326CE5" opacity="0.82"/>
  <text x="91" y="467" font-family="monospace" font-size="11"
    fill="#fff" text-anchor="middle" font-weight="bold">Kubernetes</text>
  <rect x="166" y="450" width="126" height="26" rx="4" fill="#2496ED" opacity="0.82"/>
  <text x="229" y="467" font-family="monospace" font-size="11"
    fill="#fff" text-anchor="middle" font-weight="bold">Docker</text>
  <rect x="304" y="450" width="126" height="26" rx="4" fill="#3178C6" opacity="0.82"/>
  <text x="367" y="467" font-family="monospace" font-size="11"
    fill="#fff" text-anchor="middle" font-weight="bold">TypeScript</text>
  <rect x="442" y="450" width="126" height="26" rx="4" fill="#00ADD8" opacity="0.82"/>
  <text x="505" y="467" font-family="monospace" font-size="11"
    fill="#fff" text-anchor="middle" font-weight="bold">Go</text>
  <rect x="580" y="450" width="126" height="26" rx="4" fill="#339933" opacity="0.82"/>
  <text x="643" y="467" font-family="monospace" font-size="11"
    fill="#fff" text-anchor="middle" font-weight="bold">Node.js</text>
  <rect x="718" y="450" width="126" height="26" rx="4" fill="#7B42BC" opacity="0.82"/>
  <text x="781" y="467" font-family="monospace" font-size="11"
    fill="#fff" text-anchor="middle" font-weight="bold">Terraform</text>
  <rect x="28" y="486" width="126" height="26" rx="4" fill="#3776AB" opacity="0.82"/>
  <text x="91" y="503" font-family="monospace" font-size="11"
    fill="#fff" text-anchor="middle" font-weight="bold">Python</text>
  <rect x="166" y="486" width="126" height="26" rx="4" fill="#FF9900" opacity="0.82"/>
  <text x="229" y="503" font-family="monospace" font-size="11"
    fill="#fff" text-anchor="middle" font-weight="bold">AWS</text>
  <rect x="304" y="486" width="126" height="26" rx="4" fill="#d4a017" opacity="0.82"/>
  <text x="367" y="503" font-family="monospace" font-size="11"
    fill="#fff" text-anchor="middle" font-weight="bold">Linux</text>
  <rect x="442" y="486" width="126" height="26" rx="4" fill="#F46800" opacity="0.82"/>
  <text x="505" y="503" font-family="monospace" font-size="11"
    fill="#fff" text-anchor="middle" font-weight="bold">Grafana</text>
  <rect x="580" y="486" width="126" height="26" rx="4" fill="#E6522C" opacity="0.82"/>
  <text x="643" y="503" font-family="monospace" font-size="11"
    fill="#fff" text-anchor="middle" font-weight="bold">Prometheus</text>
  <rect x="718" y="486" width="126" height="26" rx="4" fill="#36BAA2" opacity="0.82"/>
  <text x="781" y="503" font-family="monospace" font-size="11"
    fill="#fff" text-anchor="middle" font-weight="bold">Backstage</text>

  <!-- ══════════════════════════════════════════════════════ -->
  <!--  ACTIVE QUESTS panel                                   -->
  <!-- ══════════════════════════════════════════════════════ -->
  <rect x="18" y="528" width="864" height="202" rx="8"
    fill="url(#panelGrad)" stroke="#e8a020" stroke-width="1"/>
  <text x="34" y="550" font-family="monospace" font-size="9"
    fill="#f0c040" opacity="0.65" letter-spacing="4">◈ ACTIVE QUESTS</text>
  <text x="34" y="575" font-family="monospace" font-size="12" fill="#ffd700">▶  Topology-aware scheduling for LeaderWorkerSet (kubernetes-sigs/lws)
    <tspan fill="#7ee787">[ IN PROGRESS ]</tspan></text>
  <text x="34" y="600" font-family="monospace" font-size="12" fill="#ffd700">▶  CompositePodGroup integration — KEP-893
    <tspan fill="#7ee787">[ IN PROGRESS ]</tspan></text>
  <text x="34" y="625" font-family="monospace" font-size="12" fill="#ffd700">▶  GitWorld Engine — GitHub profile as a living pixel-art world
    <tspan fill="#ffd700">[ SHIPPED  ✓ ]</tspan></text>
  <text x="34" y="650" font-family="monospace" font-size="12" fill="#ffd700">▶  Real-time weather auto-detection via Open-Meteo
    <tspan fill="#ffd700">[ SHIPPED  ✓ ]</tspan></text>
  <text x="34" y="675" font-family="monospace" font-size="12" fill="#ffd700">▶  Node.js core contributions
    <tspan fill="#58a6ff">[ EXPLORING  ]</tspan></text>
  <text x="34" y="700" font-family="monospace" font-size="12" fill="#ffd700">▶  Backstage plugin ecosystem
    <tspan fill="#58a6ff">[ EXPLORING  ]</tspan></text>

  <!-- ══════════════════════════════════════════════════════ -->
  <!--  STATS HUD                                             -->
  <!-- ══════════════════════════════════════════════════════ -->
  
  <rect x="22" y="748" width="205" height="58" rx="6" fill="url(#panelGrad)" stroke="#e8a020" stroke-width="1"/>
  <text x="34" y="770" font-family="monospace" font-size="10" fill="#ffd700" opacity="0.65">🔥  Streak</text>
  <text x="34" y="793" font-family="monospace" font-size="15" fill="#f0c040" font-weight="bold">9d</text>
  <rect x="237" y="748" width="205" height="58" rx="6" fill="url(#panelGrad)" stroke="#e8a020" stroke-width="1"/>
  <text x="249" y="770" font-family="monospace" font-size="10" fill="#ffd700" opacity="0.65">🏗️  Contributions</text>
  <text x="249" y="793" font-family="monospace" font-size="15" fill="#f0c040" font-weight="bold">424</text>
  <rect x="452" y="748" width="205" height="58" rx="6" fill="url(#panelGrad)" stroke="#e8a020" stroke-width="1"/>
  <text x="464" y="770" font-family="monospace" font-size="10" fill="#ffd700" opacity="0.65">🌍  Biome</text>
  <text x="464" y="793" font-family="monospace" font-size="15" fill="#f0c040" font-weight="bold">JS Kingdom</text>
  <rect x="667" y="748" width="205" height="58" rx="6" fill="url(#panelGrad)" stroke="#e8a020" stroke-width="1"/>
  <text x="679" y="770" font-family="monospace" font-size="10" fill="#ffd700" opacity="0.65">🌦️  Weather</text>
  <text x="679" y="793" font-family="monospace" font-size="15" fill="#f0c040" font-weight="bold">rain</text>

  <!-- Footer -->
  <text x="450" y="830" font-family="monospace" font-size="9"
    fill="#ffd700" text-anchor="middle" opacity="0.35">
    ✦ Generated by GitWorld Engine · github.com/Dasmat13/git-world-action · Updates daily ✦
  </text>

  <style>
    .star     { animation: twinkle 3s ease-in-out infinite alternate; }
    @keyframes twinkle { 0%{opacity:.12} 100%{opacity:1} }

    .heroName { animation: glow-pulse 4s ease-in-out infinite alternate; }
    @keyframes glow-pulse { 0%{opacity:.88} 100%{opacity:1} }

    .cursor   { animation: blink 1s step-end infinite; }
    @keyframes blink { 0%,100%{opacity:1} 50%{opacity:0} }
  </style>
</svg>