<svg xmlns="http://www.w3.org/2000/svg" viewBox="0 0 960 1440" width="960" height="1440" style="border:4px solid #000000;border-radius:18px;overflow:hidden">
  <defs>
    <!-- Dot Grid pattern for overlay texture -->
    <pattern id="dotGrid" width="24" height="24" patternUnits="userSpaceOnUse">
      <circle cx="2" cy="2" r="1.5" fill="#000000" opacity="0.08" />
    </pattern>
  </defs>

  <!-- ═══ FULL-HEIGHT BACKDROP LANDSCAPE ═══ -->
  <rect x="0" y="0" width="960" height="166.66666666666666" fill="#090d16" /><rect x="0" y="166.66666666666666" width="960" height="166.66666666666666" fill="#0f172a" /><rect x="0" y="333.3333333333333" width="960" height="166.66666666666666" fill="#1e293b" />
  
    <!-- Top valley ground line -->
    <rect x="0" y="340" width="960" height="1100" fill="#0f172a" />
    
    <!-- Winding Valley River / Dal Lake extension flowing down behind panels -->
    <path d="M 480,340 Q 300,550 720,850 T 150,1200 T 600,1440" fill="none" stroke="#1d4ed8" stroke-width="60" stroke-linecap="round" stroke-linejoin="round" />
    <path d="M 480,340 Q 300,550 720,850 T 150,1200 T 600,1440" fill="none" stroke="#ffffff" stroke-width="8" stroke-dasharray="15,20" stroke-linecap="round" />
    
    <!-- Mid Valley Hill -->
    <path d="M -20,680 Q 400,640 980,720 L 980,1450 L -20,1450 Z" fill="#090d16" stroke="#000000" stroke-width="3.5" />
    
    <!-- Foreground Valley Hill -->
    <path d="M -20,980 Q 550,1030 980,950 L 980,1450 L -20,1450 Z" fill="#020617" stroke="#000000" stroke-width="3.5" />
  
  <rect width="960" height="1440" fill="url(#dotGrid)" pointer-events="none" />

  <!-- Sun / Moon with glowing pulse -->
  <circle cx="480" cy="180" r="75" fill="#f1f5f9" stroke="#000000" stroke-width="4.5" class="sun-pulse" />
  
  <!-- Dynamic floating stars -->
  <g class="floating-item"><path d="M 100,66 Q 100,80 114,80 Q 100,80 100,94 Q 100,80 86,80 Q 100,80 100,66 Z" fill="#ffffff" stroke="#000000" stroke-width="2.5" /></g><g class="floating-item-delay-1"><path d="M 860,94 Q 860,110 876,110 Q 860,110 860,126 Q 860,110 844,110 Q 860,110 860,94 Z" fill="#facc15" stroke="#000000" stroke-width="2.5" /></g><g class="floating-item-delay-2"><path d="M 220,190 Q 220,200 230,200 Q 220,200 220,210 Q 220,200 210,200 Q 220,200 220,190 Z" fill="#f472b6" stroke="#000000" stroke-width="2.5" /></g>

  <!-- ═══ HIMALAYAN MOUNTAINS ═══ -->
  
    <!-- Back Peak (Left) -->
    <polygon points="340,160 100,340 580,340" fill="#12102e" stroke="#000000" stroke-width="3" />
    <!-- Back Peak (Right) -->
    <polygon points="760,170 520,340 980,340" fill="#12102e" stroke="#000000" stroke-width="3" />
    
    <!-- Center-Left Peak with Snow Cap -->
    <g>
      <polygon points="240,110 0,340 240,340" fill="#1e1b4b" stroke="#000000" stroke-width="3" />
      <polygon points="240,110 240,340 480,340" fill="#12102e" stroke="#000000" stroke-width="3" />
      <polygon points="240,110 190,170 240,170" fill="#ffffff" stroke="#000000" stroke-width="3" />
      <polygon points="240,110 240,170 290,170" fill="#e2e8f0" stroke="#000000" stroke-width="3" />
    </g>

    <!-- Center-Right Peak with Snow Cap -->
    <g>
      <polygon points="620,120 380,340 620,340" fill="#1e1b4b" stroke="#000000" stroke-width="3" />
      <polygon points="620,120 620,340 860,340" fill="#12102e" stroke="#000000" stroke-width="3" />
      <polygon points="620,120 570,180 620,180" fill="#ffffff" stroke="#000000" stroke-width="3" />
      <polygon points="620,120 620,180 670,180" fill="#e2e8f0" stroke="#000000" stroke-width="3" />
    </g>
  

  <!-- ═══ FOREGROUND PINE FOREST ═══ -->
  
    <g transform="translate(100, 390) scale(0.75)" class="swaying-tree">
      <!-- Trunk -->
      <rect x="-3.5" y="0" width="7" height="15" fill="#78350f" stroke="#000000" stroke-width="2" />
      <!-- Leaf Levels -->
      <polygon points="0,-32 -22,-8 22,-8" fill="#166534" stroke="#000000" stroke-width="2" />
      <polygon points="0,-45 -17,-20 17,-20" fill="#15803d" stroke="#000000" stroke-width="2" />
      <polygon points="0,-58 -12,-32 12,-32" fill="#14532d" stroke="#000000" stroke-width="2" />
    </g>
  
    <g transform="translate(150, 400) scale(0.85)" class="swaying-tree-delay">
      <!-- Trunk -->
      <rect x="-3.5" y="0" width="7" height="15" fill="#78350f" stroke="#000000" stroke-width="2" />
      <!-- Leaf Levels -->
      <polygon points="0,-32 -22,-8 22,-8" fill="#166534" stroke="#000000" stroke-width="2" />
      <polygon points="0,-45 -17,-20 17,-20" fill="#15803d" stroke="#000000" stroke-width="2" />
      <polygon points="0,-58 -12,-32 12,-32" fill="#14532d" stroke="#000000" stroke-width="2" />
    </g>
  
    <g transform="translate(820, 380) scale(0.75)" class="swaying-tree">
      <!-- Trunk -->
      <rect x="-3.5" y="0" width="7" height="15" fill="#78350f" stroke="#000000" stroke-width="2" />
      <!-- Leaf Levels -->
      <polygon points="0,-32 -22,-8 22,-8" fill="#166534" stroke="#000000" stroke-width="2" />
      <polygon points="0,-45 -17,-20 17,-20" fill="#15803d" stroke="#000000" stroke-width="2" />
      <polygon points="0,-58 -12,-32 12,-32" fill="#14532d" stroke="#000000" stroke-width="2" />
    </g>
  
    <g transform="translate(880, 390) scale(0.9)" class="swaying-tree-delay">
      <!-- Trunk -->
      <rect x="-3.5" y="0" width="7" height="15" fill="#78350f" stroke="#000000" stroke-width="2" />
      <!-- Leaf Levels -->
      <polygon points="0,-32 -22,-8 22,-8" fill="#166534" stroke="#000000" stroke-width="2" />
      <polygon points="0,-45 -17,-20 17,-20" fill="#15803d" stroke="#000000" stroke-width="2" />
      <polygon points="0,-58 -12,-32 12,-32" fill="#14532d" stroke="#000000" stroke-width="2" />
    </g>
  
    <g transform="translate(60, 720) scale(1)" class="swaying-tree-delay">
      <!-- Trunk -->
      <rect x="-3.5" y="0" width="7" height="15" fill="#78350f" stroke="#000000" stroke-width="2" />
      <!-- Leaf Levels -->
      <polygon points="0,-32 -22,-8 22,-8" fill="#166534" stroke="#000000" stroke-width="2" />
      <polygon points="0,-45 -17,-20 17,-20" fill="#15803d" stroke="#000000" stroke-width="2" />
      <polygon points="0,-58 -12,-32 12,-32" fill="#14532d" stroke="#000000" stroke-width="2" />
    </g>
  
    <g transform="translate(900, 750) scale(1.1)" class="swaying-tree">
      <!-- Trunk -->
      <rect x="-3.5" y="0" width="7" height="15" fill="#78350f" stroke="#000000" stroke-width="2" />
      <!-- Leaf Levels -->
      <polygon points="0,-32 -22,-8 22,-8" fill="#166534" stroke="#000000" stroke-width="2" />
      <polygon points="0,-45 -17,-20 17,-20" fill="#15803d" stroke="#000000" stroke-width="2" />
      <polygon points="0,-58 -12,-32 12,-32" fill="#14532d" stroke="#000000" stroke-width="2" />
    </g>
  
    <g transform="translate(80, 1020) scale(1.25)" class="swaying-tree">
      <!-- Trunk -->
      <rect x="-3.5" y="0" width="7" height="15" fill="#78350f" stroke="#000000" stroke-width="2" />
      <!-- Leaf Levels -->
      <polygon points="0,-32 -22,-8 22,-8" fill="#166534" stroke="#000000" stroke-width="2" />
      <polygon points="0,-45 -17,-20 17,-20" fill="#15803d" stroke="#000000" stroke-width="2" />
      <polygon points="0,-58 -12,-32 12,-32" fill="#14532d" stroke="#000000" stroke-width="2" />
    </g>
  
    <g transform="translate(880, 1000) scale(1.3)" class="swaying-tree-delay">
      <!-- Trunk -->
      <rect x="-3.5" y="0" width="7" height="15" fill="#78350f" stroke="#000000" stroke-width="2" />
      <!-- Leaf Levels -->
      <polygon points="0,-32 -22,-8 22,-8" fill="#166534" stroke="#000000" stroke-width="2" />
      <polygon points="0,-45 -17,-20 17,-20" fill="#15803d" stroke="#000000" stroke-width="2" />
      <polygon points="0,-58 -12,-32 12,-32" fill="#14532d" stroke="#000000" stroke-width="2" />
    </g>
  

  <!-- ═══ WEATHER PARTICLES ═══ -->
  <g class="falling-p" style="animation-delay: 0.0s; animation-duration: 1.5s;"><line x1="40" y1="-25" x2="28" y2="10" stroke="#38bdf8" stroke-width="3" stroke-linecap="round" /></g><g class="falling-p" style="animation-delay: 0.3s; animation-duration: 2.0s;"><line x1="98" y1="-25" x2="86" y2="10" stroke="#38bdf8" stroke-width="3" stroke-linecap="round" /></g><g class="falling-p" style="animation-delay: 0.6s; animation-duration: 2.5s;"><line x1="156" y1="-25" x2="144" y2="10" stroke="#38bdf8" stroke-width="3" stroke-linecap="round" /></g><g class="falling-p" style="animation-delay: 0.9s; animation-duration: 1.5s;"><line x1="214" y1="-25" x2="202" y2="10" stroke="#38bdf8" stroke-width="3" stroke-linecap="round" /></g><g class="falling-p" style="animation-delay: 1.2s; animation-duration: 2.0s;"><line x1="272" y1="-25" x2="260" y2="10" stroke="#38bdf8" stroke-width="3" stroke-linecap="round" /></g><g class="falling-p" style="animation-delay: 1.5s; animation-duration: 2.5s;"><line x1="330" y1="-25" x2="318" y2="10" stroke="#38bdf8" stroke-width="3" stroke-linecap="round" /></g><g class="falling-p" style="animation-delay: 1.8s; animation-duration: 1.5s;"><line x1="388" y1="-25" x2="376" y2="10" stroke="#38bdf8" stroke-width="3" stroke-linecap="round" /></g><g class="falling-p" style="animation-delay: 2.1s; animation-duration: 2.0s;"><line x1="446" y1="-25" x2="434" y2="10" stroke="#38bdf8" stroke-width="3" stroke-linecap="round" /></g><g class="falling-p" style="animation-delay: 2.4s; animation-duration: 2.5s;"><line x1="504" y1="-25" x2="492" y2="10" stroke="#38bdf8" stroke-width="3" stroke-linecap="round" /></g><g class="falling-p" style="animation-delay: 2.7s; animation-duration: 1.5s;"><line x1="562" y1="-25" x2="550" y2="10" stroke="#38bdf8" stroke-width="3" stroke-linecap="round" /></g><g class="falling-p" style="animation-delay: 3.0s; animation-duration: 2.0s;"><line x1="620" y1="-25" x2="608" y2="10" stroke="#38bdf8" stroke-width="3" stroke-linecap="round" /></g><g class="falling-p" style="animation-delay: 3.3s; animation-duration: 2.5s;"><line x1="678" y1="-25" x2="666" y2="10" stroke="#38bdf8" stroke-width="3" stroke-linecap="round" /></g><g class="falling-p" style="animation-delay: 3.6s; animation-duration: 1.5s;"><line x1="736" y1="-25" x2="724" y2="10" stroke="#38bdf8" stroke-width="3" stroke-linecap="round" /></g><g class="falling-p" style="animation-delay: 3.9s; animation-duration: 2.0s;"><line x1="794" y1="-25" x2="782" y2="10" stroke="#38bdf8" stroke-width="3" stroke-linecap="round" /></g><g class="falling-p" style="animation-delay: 4.2s; animation-duration: 2.5s;"><line x1="852" y1="-25" x2="840" y2="10" stroke="#38bdf8" stroke-width="3" stroke-linecap="round" /></g><g class="falling-p" style="animation-delay: 4.5s; animation-duration: 1.5s;"><line x1="910" y1="-25" x2="898" y2="10" stroke="#38bdf8" stroke-width="3" stroke-linecap="round" /></g>

  <!-- ═══ SHORELINE TEXT MARQUEE ═══ -->
  
    <g transform="translate(0, 440)">
      <rect x="-10" y="0" width="980" height="32" fill="#facc15" stroke="#000000" stroke-width="3" />
      <g class="marquee-group">
        <text y="21" font-family="'Space Grotesk', sans-serif" font-size="12.5" font-weight="900" fill="#000000" letter-spacing="1.5">
          🌊 KASHMIR DAL LAKE · HIMACHAL HIMALAYAS · ORCHESTRATE · COMPILE · MERGE · REFACTOR · SCALE · KASHMIR DAL LAKE · HIMACHAL HIMALAYAS · ORCHESTRATE · COMPILE · MERGE · REFACTOR · SCALE
        </text>
      </g>
    </g>
    <line x1="0" y1="440" x2="960" y2="440" stroke="#000000" stroke-width="4.5" />
    <line x1="0" y1="472" x2="960" y2="472" stroke="#000000" stroke-width="4.5" />
  

  <!-- ═══ ANIMATED BIRDS & DRIFTING CLOUDS ═══ -->
  <g class="floating-cloud">
    <rect x="0" y="45" width="130" height="22" rx="11" fill="#ffffff" stroke="#000000" stroke-width="3" />
  </g>
  <g class="flying-bird">
    <path d="M 0,0 L 6,-5 L 12,0 L 18,-5 L 24,0" fill="none" stroke="#000000" stroke-width="3.5" stroke-linecap="round" />
  </g>
  <g class="flying-bird-delay">
    <path d="M 0,0 L 5,-4 L 10,0 L 15,-4 L 20,0" fill="none" stroke="#000000" stroke-width="3" stroke-linecap="round" />
  </g>

  <!-- ═══ HERO HEADER (Floating atop landscape) ═══ -->
  <g transform="translate(180, 320)">
    <!-- Shadow -->
    <rect x="6" y="6" width="600" height="120" rx="8" fill="#000000"/>
    <!-- Main Box -->
    <rect x="0" y="0" width="600" height="120" rx="8" fill="#ffffff" fill-opacity="0.94" stroke="#000000" stroke-width="3.5"/>
    
    <!-- Neon Pink left vertical stripe -->
    <rect x="3" y="3" width="10" height="114" fill="#f472b6" />
    <line x1="13" y1="3" x2="13" y2="117" stroke="#000000" stroke-width="3.5" />

    <text x="310" y="55" font-family="'Space Grotesk', sans-serif" font-size="34" fill="#000000" text-anchor="middle" font-weight="900">HI, I'M DASMAT ⚡</text>
    <text x="310" y="88" font-family="'Inter', sans-serif" font-size="13" fill="#000000" font-weight="700" text-anchor="middle" letter-spacing="0.5">
      DEVOPS EXPLORER  ·  FULL-STACK DEVELOPER  ·  OSS CONTRIBUTOR
    </text>
  </g>

  <!-- ═══ ABOUT ME PANEL y=480 h=170 ═══ -->
  
<g class="panel">
  <!-- Card Shadow -->
  <rect x="46" y="486" width="880" height="170" rx="8" fill="#000000" />
  <!-- Card Main Box (Semi-transparent white) -->
  <rect x="40" y="480" width="880" height="170" rx="8" fill="#ffffff" fill-opacity="0.91" stroke="#000000" stroke-width="3.5" />
  
  <!-- Badge Shadow -->
  <rect x="74" y="469" width="202.5" height="28" rx="4" fill="#000000" />
  <!-- Badge Main -->
  <rect x="71" y="466" width="202.5" height="28" rx="4" fill="#38bdf8" stroke="#000000" stroke-width="3" />
  <text x="172.25" y="484" font-family="'Space Grotesk', sans-serif" font-size="12" fill="#000000" font-weight="900" text-anchor="middle" letter-spacing="1.2">⚡  ABOUT THE TRAVELER</text>
</g>
  <text x="70" y="530" font-family="'Inter', sans-serif" font-size="13" fill="#000000" font-weight="700">
    ⚡  <tspan font-weight="900" fill="#facc15" stroke="#000000" stroke-width="0.5">CORE INTERESTS:</tspan> Infrastructure automation, Cloud-Native scaling, Self-healing architectures
  </text>
  <text x="70" y="575" font-family="'Inter', sans-serif" font-size="13" fill="#000000" font-weight="700">
    ⚡  <tspan font-weight="900" fill="#facc15" stroke="#000000" stroke-width="0.5">CONTRIBUTING TO:</tspan> Kubernetes SIGs, Node.js Core, Express.js, Backstage Ecosystem
  </text>
  <text x="70" y="620" font-family="'Inter', sans-serif" font-size="13" fill="#000000" font-weight="700">
    ⚡  <tspan font-weight="900" fill="#facc15" stroke="#000000" stroke-width="0.5">CONTACT:</tspan> dasmath06@gmail.com   ·   ⚡  Experiments daily with automated recovery pipelines
  </text>

  <!-- ═══ WORLD STATE BAR y=690 h=70 ═══ -->
  
<g class="panel">
  <!-- Card Shadow -->
  <rect x="46" y="696" width="880" height="70" rx="8" fill="#000000" />
  <!-- Card Main Box (Semi-transparent white) -->
  <rect x="40" y="690" width="880" height="70" rx="8" fill="#ffffff" fill-opacity="0.91" stroke="#000000" stroke-width="3.5" />
  
  <!-- Badge Shadow -->
  <rect x="74" y="679" width="253.5" height="28" rx="4" fill="#000000" />
  <!-- Badge Main -->
  <rect x="71" y="676" width="253.5" height="28" rx="4" fill="#f472b6" stroke="#000000" stroke-width="3" />
  <text x="197.75" y="694" font-family="'Space Grotesk', sans-serif" font-size="12" fill="#000000" font-weight="900" text-anchor="middle" letter-spacing="1.2">🏡  CURRENT ENVIRONMENT LOG</text>
</g>
  <text x="480" y="732" font-family="'Space Grotesk', sans-serif" font-size="13.5" fill="#000000" text-anchor="middle" font-weight="900">
    🌳 BIOME: <tspan fill="#000000" font-weight="900">JS KINGDOM</tspan>
    <tspan dx="15" fill="#000000" opacity="0.3">|</tspan>
    <tspan dx="15">🕰️ TIME: <tspan fill="#38bdf8">NIGHT</tspan></tspan>
    <tspan dx="15" fill="#000000" opacity="0.3">|</tspan>
    <tspan dx="15">🌦️ WEATHER: <tspan fill="#a855f7">RAIN</tspan></tspan>
    <tspan dx="15" fill="#000000" opacity="0.3">|</tspan>
    <tspan dx="15">🎒 STREAK: <tspan fill="#fbbf24">10 DAYS</tspan></tspan>
  </text>

  <!-- ═══ TECH STACK PANEL y=800 h=190 ═══ -->
  
<g class="panel">
  <!-- Card Shadow -->
  <rect x="46" y="806" width="880" height="190" rx="8" fill="#000000" />
  <!-- Card Main Box (Semi-transparent white) -->
  <rect x="40" y="800" width="880" height="190" rx="8" fill="#ffffff" fill-opacity="0.91" stroke="#000000" stroke-width="3.5" />
  
  <!-- Badge Shadow -->
  <rect x="74" y="789" width="262" height="28" rx="4" fill="#000000" />
  <!-- Badge Main -->
  <rect x="71" y="786" width="262" height="28" rx="4" fill="#4ade80" stroke="#000000" stroke-width="3" />
  <text x="202" y="804" font-family="'Space Grotesk', sans-serif" font-size="12" fill="#000000" font-weight="900" text-anchor="middle" letter-spacing="1.2">🎒  PACKED GEAR (TECH STACK)</text>
</g>
  
    <g>
      <!-- Shadow -->
      <rect x="74" y="840" width="180" height="28" rx="4" fill="#000000" />
      <!-- Main -->
      <rect x="70" y="836" width="180" height="28" rx="4" fill="#4ade80" stroke="#000000" stroke-width="2.5" />
      <text x="160" y="854" font-family="'Space Grotesk', sans-serif" font-size="11.5" fill="#000000" font-weight="900" text-anchor="middle">KUBERNETES</text>
    </g>
    
    <g>
      <!-- Shadow -->
      <rect x="284" y="840" width="180" height="28" rx="4" fill="#000000" />
      <!-- Main -->
      <rect x="280" y="836" width="180" height="28" rx="4" fill="#38bdf8" stroke="#000000" stroke-width="2.5" />
      <text x="370" y="854" font-family="'Space Grotesk', sans-serif" font-size="11.5" fill="#000000" font-weight="900" text-anchor="middle">DOCKER</text>
    </g>
    
    <g>
      <!-- Shadow -->
      <rect x="494" y="840" width="180" height="28" rx="4" fill="#000000" />
      <!-- Main -->
      <rect x="490" y="836" width="180" height="28" rx="4" fill="#f472b6" stroke="#000000" stroke-width="2.5" />
      <text x="580" y="854" font-family="'Space Grotesk', sans-serif" font-size="11.5" fill="#000000" font-weight="900" text-anchor="middle">TYPESCRIPT</text>
    </g>
    
    <g>
      <!-- Shadow -->
      <rect x="704" y="840" width="180" height="28" rx="4" fill="#000000" />
      <!-- Main -->
      <rect x="700" y="836" width="180" height="28" rx="4" fill="#22d3ee" stroke="#000000" stroke-width="2.5" />
      <text x="790" y="854" font-family="'Space Grotesk', sans-serif" font-size="11.5" fill="#000000" font-weight="900" text-anchor="middle">GO</text>
    </g>
    
    <g>
      <!-- Shadow -->
      <rect x="74" y="900" width="180" height="28" rx="4" fill="#000000" />
      <!-- Main -->
      <rect x="70" y="896" width="180" height="28" rx="4" fill="#a855f7" stroke="#000000" stroke-width="2.5" />
      <text x="160" y="914" font-family="'Space Grotesk', sans-serif" font-size="11.5" fill="#000000" font-weight="900" text-anchor="middle">NODE.JS</text>
    </g>
    
    <g>
      <!-- Shadow -->
      <rect x="284" y="900" width="180" height="28" rx="4" fill="#000000" />
      <!-- Main -->
      <rect x="280" y="896" width="180" height="28" rx="4" fill="#fbbf24" stroke="#000000" stroke-width="2.5" />
      <text x="370" y="914" font-family="'Space Grotesk', sans-serif" font-size="11.5" fill="#000000" font-weight="900" text-anchor="middle">TERRAFORM</text>
    </g>
    
    <g>
      <!-- Shadow -->
      <rect x="494" y="900" width="180" height="28" rx="4" fill="#000000" />
      <!-- Main -->
      <rect x="490" y="896" width="180" height="28" rx="4" fill="#ff7096" stroke="#000000" stroke-width="2.5" />
      <text x="580" y="914" font-family="'Space Grotesk', sans-serif" font-size="11.5" fill="#000000" font-weight="900" text-anchor="middle">PYTHON</text>
    </g>
    
    <g>
      <!-- Shadow -->
      <rect x="704" y="900" width="180" height="28" rx="4" fill="#000000" />
      <!-- Main -->
      <rect x="700" y="896" width="180" height="28" rx="4" fill="#fb923c" stroke="#000000" stroke-width="2.5" />
      <text x="790" y="914" font-family="'Space Grotesk', sans-serif" font-size="11.5" fill="#000000" font-weight="900" text-anchor="middle">AWS</text>
    </g>
    
    <g>
      <!-- Shadow -->
      <rect x="74" y="960" width="180" height="28" rx="4" fill="#000000" />
      <!-- Main -->
      <rect x="70" y="956" width="180" height="28" rx="4" fill="#94a3b8" stroke="#000000" stroke-width="2.5" />
      <text x="160" y="974" font-family="'Space Grotesk', sans-serif" font-size="11.5" fill="#000000" font-weight="900" text-anchor="middle">LINUX</text>
    </g>
    
    <g>
      <!-- Shadow -->
      <rect x="284" y="960" width="180" height="28" rx="4" fill="#000000" />
      <!-- Main -->
      <rect x="280" y="956" width="180" height="28" rx="4" fill="#f87171" stroke="#000000" stroke-width="2.5" />
      <text x="370" y="974" font-family="'Space Grotesk', sans-serif" font-size="11.5" fill="#000000" font-weight="900" text-anchor="middle">GRAFANA</text>
    </g>
    
    <g>
      <!-- Shadow -->
      <rect x="494" y="960" width="180" height="28" rx="4" fill="#000000" />
      <!-- Main -->
      <rect x="490" y="956" width="180" height="28" rx="4" fill="#fb7185" stroke="#000000" stroke-width="2.5" />
      <text x="580" y="974" font-family="'Space Grotesk', sans-serif" font-size="11.5" fill="#000000" font-weight="900" text-anchor="middle">PROMETHEUS</text>
    </g>
    
    <g>
      <!-- Shadow -->
      <rect x="704" y="960" width="180" height="28" rx="4" fill="#000000" />
      <!-- Main -->
      <rect x="700" y="956" width="180" height="28" rx="4" fill="#2dd4bf" stroke="#000000" stroke-width="2.5" />
      <text x="790" y="974" font-family="'Space Grotesk', sans-serif" font-size="11.5" fill="#000000" font-weight="900" text-anchor="middle">BACKSTAGE</text>
    </g>
    

  <!-- ═══ ACTIVE QUESTS PANEL y=1030 h=240 ═══ -->
  
<g class="panel">
  <!-- Card Shadow -->
  <rect x="46" y="1036" width="880" height="240" rx="8" fill="#000000" />
  <!-- Card Main Box (Semi-transparent white) -->
  <rect x="40" y="1030" width="880" height="240" rx="8" fill="#ffffff" fill-opacity="0.91" stroke="#000000" stroke-width="3.5" />
  
  <!-- Badge Shadow -->
  <rect x="74" y="1019" width="330" height="28" rx="4" fill="#000000" />
  <!-- Badge Main -->
  <rect x="71" y="1016" width="330" height="28" rx="4" fill="#c084fc" stroke="#000000" stroke-width="3" />
  <text x="236" y="1034" font-family="'Space Grotesk', sans-serif" font-size="12" fill="#000000" font-weight="900" text-anchor="middle" letter-spacing="1.2">🗺️  CURRENT JOURNEY (ACTIVE QUESTS)</text>
</g>
  
    <g transform="translate(60, 1084)">
      <!-- Bullet Diamond -->
      <rect x="0" y="-4" width="8" height="8" fill="#000000" transform="rotate(45 4 4)" />
      <text x="24" y="5" font-family="'Inter', sans-serif" font-size="13" fill="#000000" font-weight="700">
        LeaderWorkerSet topology-aware scheduling
      </text>
      
      <!-- Status pill badge -->
      <g transform="translate(680, -11)">
        <rect x="0" y="0" width="130" height="22" rx="4" fill="#4ade80" stroke="#000000" stroke-width="2" />
        <text x="65" y="15" font-family="'Space Grotesk', sans-serif" font-size="9" fill="#000000" font-weight="900" text-anchor="middle" letter-spacing="0.5">
          ACTIVE JOURNEY 🌿
        </text>
      </g>
    </g>
    
    <g transform="translate(60, 1122)">
      <!-- Bullet Diamond -->
      <rect x="0" y="-4" width="8" height="8" fill="#000000" transform="rotate(45 4 4)" />
      <text x="24" y="5" font-family="'Inter', sans-serif" font-size="13" fill="#000000" font-weight="700">
        CompositePodGroup integration (KEP-893)
      </text>
      
      <!-- Status pill badge -->
      <g transform="translate(680, -11)">
        <rect x="0" y="0" width="130" height="22" rx="4" fill="#4ade80" stroke="#000000" stroke-width="2" />
        <text x="65" y="15" font-family="'Space Grotesk', sans-serif" font-size="9" fill="#000000" font-weight="900" text-anchor="middle" letter-spacing="0.5">
          ACTIVE JOURNEY 🌿
        </text>
      </g>
    </g>
    
    <g transform="translate(60, 1160)">
      <!-- Bullet Diamond -->
      <rect x="0" y="-4" width="8" height="8" fill="#000000" transform="rotate(45 4 4)" />
      <text x="24" y="5" font-family="'Inter', sans-serif" font-size="13" fill="#000000" font-weight="700">
        GitWorld Engine rendering pipeline core
      </text>
      
      <!-- Status pill badge -->
      <g transform="translate(680, -11)">
        <rect x="0" y="0" width="130" height="22" rx="4" fill="#facc15" stroke="#000000" stroke-width="2" />
        <text x="65" y="15" font-family="'Space Grotesk', sans-serif" font-size="9" fill="#000000" font-weight="900" text-anchor="middle" letter-spacing="0.5">
          COMPLETED 🏆
        </text>
      </g>
    </g>
    
    <g transform="translate(60, 1198)">
      <!-- Bullet Diamond -->
      <rect x="0" y="-4" width="8" height="8" fill="#000000" transform="rotate(45 4 4)" />
      <text x="24" y="5" font-family="'Inter', sans-serif" font-size="13" fill="#000000" font-weight="700">
        Real-time automatic location weather sync
      </text>
      
      <!-- Status pill badge -->
      <g transform="translate(680, -11)">
        <rect x="0" y="0" width="130" height="22" rx="4" fill="#facc15" stroke="#000000" stroke-width="2" />
        <text x="65" y="15" font-family="'Space Grotesk', sans-serif" font-size="9" fill="#000000" font-weight="900" text-anchor="middle" letter-spacing="0.5">
          COMPLETED 🏆
        </text>
      </g>
    </g>
    
    <g transform="translate(60, 1236)">
      <!-- Bullet Diamond -->
      <rect x="0" y="-4" width="8" height="8" fill="#000000" transform="rotate(45 4 4)" />
      <text x="24" y="5" font-family="'Inter', sans-serif" font-size="13" fill="#000000" font-weight="700">
        Upstream Node.js core exploration
      </text>
      
      <!-- Status pill badge -->
      <g transform="translate(680, -11)">
        <rect x="0" y="0" width="130" height="22" rx="4" fill="#38bdf8" stroke="#000000" stroke-width="2" />
        <text x="65" y="15" font-family="'Space Grotesk', sans-serif" font-size="9" fill="#000000" font-weight="900" text-anchor="middle" letter-spacing="0.5">
          WANDERING 🏕️
        </text>
      </g>
    </g>
    

  <!-- ═══ STATS HUD y=1310 h=90 ═══ -->
  
    <g>
      <!-- Shadow -->
      <rect x="65" y="1320" width="260" height="82" rx="6" fill="#000000" />
      <!-- Main -->
      <rect x="60" y="1315" width="260" height="82" rx="6" fill="#4ade80" stroke="#000000" stroke-width="3" />
      <text x="72" y="1335" font-family="'Space Grotesk', sans-serif" font-size="9.5" fill="#000000" font-weight="900" letter-spacing="1">📝  TRAVEL STREAK</text>
      <text x="72" y="1363" font-family="'Space Grotesk', sans-serif" font-size="20" fill="#000000" font-weight="900">10 days</text>
      <text x="72" y="1383" font-family="'Inter', sans-serif" font-size="10" fill="#000000" font-weight="700" opacity="0.8">committed in a row</text>
    </g>
    
    <g>
      <!-- Shadow -->
      <rect x="355" y="1320" width="260" height="82" rx="6" fill="#000000" />
      <!-- Main -->
      <rect x="350" y="1315" width="260" height="82" rx="6" fill="#38bdf8" stroke="#000000" stroke-width="3" />
      <text x="362" y="1335" font-family="'Space Grotesk', sans-serif" font-size="9.5" fill="#000000" font-weight="900" letter-spacing="1">🌱  SPROUTS GROWN</text>
      <text x="362" y="1363" font-family="'Space Grotesk', sans-serif" font-size="20" fill="#000000" font-weight="900">418</text>
      <text x="362" y="1383" font-family="'Inter', sans-serif" font-size="10" fill="#000000" font-weight="700" opacity="0.8">total commits</text>
    </g>
    
    <g>
      <!-- Shadow -->
      <rect x="645" y="1320" width="260" height="82" rx="6" fill="#000000" />
      <!-- Main -->
      <rect x="640" y="1315" width="260" height="82" rx="6" fill="#facc15" stroke="#000000" stroke-width="3" />
      <text x="652" y="1335" font-family="'Space Grotesk', sans-serif" font-size="9.5" fill="#000000" font-weight="900" letter-spacing="1">🏡  HOME BIOME</text>
      <text x="652" y="1363" font-family="'Space Grotesk', sans-serif" font-size="20" fill="#000000" font-weight="900">JS KINGDOM</text>
      <text x="652" y="1383" font-family="'Inter', sans-serif" font-size="10" fill="#000000" font-weight="700" opacity="0.8">Weather: RAIN</text>
    </g>
    

  <!-- Neobrutalist bottom footer -->
  <text x="480" y="1428" font-family="'Space Grotesk', sans-serif" font-size="10.5" fill="#000000" font-weight="800" text-anchor="middle" letter-spacing="1">
    ⚡  HARVESTED DAILY BY GITWORLD ENGINE  ·  GITHUB.COM/DASMAT13/GIT-WORLD-ACTION  ⚡
  </text>

  <style>
    .floating-item {
      animation: floatAnimation 5s ease-in-out infinite alternate;
      transform-origin: center;
    }
    .floating-item-delay-1 {
      animation: floatAnimation 7s ease-in-out infinite alternate;
      animation-delay: 1.5s;
      transform-origin: center;
    }
    .floating-item-delay-2 {
      animation: floatAnimation 6s ease-in-out infinite alternate;
      animation-delay: 3s;
      transform-origin: center;
    }
    @keyframes floatAnimation {
      0% { transform: translateY(0px) rotate(0deg); }
      50% { transform: translateY(-12px) rotate(3deg); }
      100% { transform: translateY(-24px) rotate(-3deg); }
    }
    .sun-pulse {
      animation: pulseSun 5s ease-in-out infinite alternate;
      transform-origin: center;
    }
    @keyframes pulseSun {
      0% { transform: scale(0.96); opacity: 0.9; }
      100% { transform: scale(1.04); opacity: 1; }
    }
    .swaying-tree {
      animation: swayTree 6s ease-in-out infinite alternate;
      transform-origin: bottom center;
    }
    .swaying-tree-delay {
      animation: swayTree 8s ease-in-out infinite alternate;
      animation-delay: 2.2s;
      transform-origin: bottom center;
    }
    @keyframes swayTree {
      0% { transform: rotate(-2.5deg); }
      100% { transform: rotate(2.5deg); }
    }
    .marquee-group {
      animation: marqueeText 26s linear infinite;
    }
    @keyframes marqueeText {
      0% { transform: translateX(0); }
      100% { transform: translateX(-650px); }
    }
    .flying-bird {
      animation: birdFly 16s linear infinite;
    }
    .flying-bird-delay {
      animation: birdFly 22s linear infinite;
      animation-delay: 5s;
    }
    @keyframes birdFly {
      0% { transform: translate(-50px, 90px); }
      100% { transform: translate(1010px, 40px); }
    }
    .floating-cloud {
      animation: cloudFloat 28s linear infinite;
    }
    @keyframes cloudFloat {
      0% { transform: translateX(-150px); }
      100% { transform: translateX(1010px); }
    }
    .falling-p {
      animation: fallAnim 5s linear infinite;
    }
    @keyframes fallAnim {
      0% { transform: translateY(0) translateX(0) rotate(0deg); opacity: 0; }
      8% { opacity: 0.85; }
      90% { opacity: 0.85; }
      100% { transform: translateY(1480px) translateX(100px) rotate(360deg); opacity: 0; }
    }
  </style>
</svg>