<svg xmlns="http://www.w3.org/2000/svg" viewBox="0 0 960 1440" width="960" height="1440" style="border:1.2px solid rgba(255,255,255,0.2);border-radius:18px;overflow:hidden">
  <defs>
    <!-- 90s Sky cyclic gradient -->
    <linearGradient id="skyGrad" x1="0%" y1="0%" x2="0%" y2="100%">
      <stop offset="0%" stop-color="#060814">
        <animate attributeName="stop-color" values="#060814;#f472b6;#3b82f6;#881337;#060814" dur="90s" repeatCount="indefinite" />
      </stop>
      <stop offset="100%" stop-color="#1c2242">
        <animate attributeName="stop-color" values="#1c2242;#fef08a;#93c5fd;#fb7185;#1c2242" dur="90s" repeatCount="indefinite" />
      </stop>
    </linearGradient>
  </defs>

  <!-- ═══ FULL-HEIGHT BACKDROP LANDSCAPE ═══ -->
  <rect width="960" height="500" fill="url(#skyGrad)"/>
  
    <!-- Dry desert valley background -->
    <rect x="0" y="340" width="960" height="1100" fill="#211a18">
      <animate attributeName="fill" values="#211a18;#bfa780;#C7B08A;#78430c;#211a18" dur="90s" repeatCount="indefinite" />
    </rect>
    
    <!-- Spiti River (Glacial blue path winding diagonally) -->
    <path d="M 480,340 Q 300,550 720,850 T 150,1200 T 600,1440" fill="none" stroke="#1d4ed8" stroke-width="60" stroke-linecap="round" stroke-linejoin="round">
      <animate attributeName="stroke" values="#1d4ed8;#38bdf8;#4EC7E8;#ec4899;#1d4ed8" dur="90s" repeatCount="indefinite" />
    </path>
    <path d="M 480,340 Q 300,550 720,850 T 150,1200 T 600,1440" fill="none" stroke="#ffffff" stroke-width="8" stroke-dasharray="15,20" stroke-linecap="round" />
    
    <!-- Cold Desert Middle foothill -->
    <path d="M -20,680 Q 400,640 980,720 L 980,1450 L -20,1450 Z" fill="#16100d">
      <animate attributeName="fill" values="#16100d;#a8916b;#b8a27c;#63360f;#16100d" dur="90s" repeatCount="indefinite" />
    </path>
    
    <!-- Cold Desert Foreground foothill -->
    <path d="M -20,980 Q 550,1030 980,950 L 980,1450 L -20,1450 Z" fill="#0c0806">
      <animate attributeName="fill" values="#0c0806;#8c7653;#9e8863;#3b1c05;#0c0806" dur="90s" repeatCount="indefinite" />
    </path>
  

  <!-- Sun / Moon with dynamic fill color transitions & pulse -->
  <circle cx="480" cy="180" r="75" fill="#ffffff" class="sun">
    <animate attributeName="fill" values="#ffffff;#fbbf24;#f97316;#fbbf24;#ffffff" dur="90s" repeatCount="indefinite" />
  </circle>
  
  <!-- Twinkling Stars -->
  <circle cx="80" cy="90" r="1.8" fill="#ffffff" class="twinkle" style="animation-delay: 0s;" /><circle cx="160" cy="120" r="1.2" fill="#ffffff" class="twinkle" style="animation-delay: 1.2s;" /><circle cx="210" cy="70" r="2" fill="#ffffff" class="twinkle" style="animation-delay: 0.5s;" /><circle cx="780" cy="110" r="1.5" fill="#ffffff" class="twinkle" style="animation-delay: 2s;" /><circle cx="840" cy="60" r="2.2" fill="#ffffff" class="twinkle" style="animation-delay: 1.5s;" />

  <!-- ═══ HIMALAYAN MOUNTAINS ═══ -->
  
    <!-- Layer 1 (Distant back peak left) -->
    <polygon points="260,180 50,344 470,344" fill="#1b1429">
      <animate attributeName="fill" values="#1b1429;#584670;#5D6670;#431962;#1b1429" dur="90s" repeatCount="indefinite" />
    </polygon>
    <!-- Layer 2 (Distant back peak right) -->
    <polygon points="700,190 480,344 920,344" fill="#1b1429">
      <animate attributeName="fill" values="#1b1429;#584670;#5D6670;#431962;#1b1429" dur="90s" repeatCount="indefinite" />
    </polygon>
    <!-- Layer 3 (Highest peak center-left with Snow Cap) -->
    <g>
      <polygon points="380,120 120,344 380,344" fill="#2c223a">
        <animate attributeName="fill" values="#2c223a;#6e5741;#7A624A;#532470;#2c223a" dur="90s" repeatCount="indefinite" />
      </polygon>
      <polygon points="380,120 380,344 640,344" fill="#1b1429">
        <animate attributeName="fill" values="#1b1429;#584670;#5D6670;#431962;#1b1429" dur="90s" repeatCount="indefinite" />
      </polygon>
      <polygon points="380,120 330,180 380,180" fill="#ffffff" />
      <polygon points="380,120 380,180 430,180" fill="#f1f5f9" />
    </g>
    <!-- Layer 4 (Mid Peak Right supporting Key Monastery) -->
    <g>
      <polygon points="760,140 500,344 760,344" fill="#2c223a">
        <animate attributeName="fill" values="#2c223a;#6e5741;#7A624A;#532470;#2c223a" dur="90s" repeatCount="indefinite" />
      </polygon>
      <polygon points="760,140 760,344 1020,344" fill="#1b1429">
        <animate attributeName="fill" values="#1b1429;#584670;#5D6670;#431962;#1b1429" dur="90s" repeatCount="indefinite" />
      </polygon>
      <polygon points="760,140 720,190 760,190" fill="#ffffff" />
      <polygon points="760,140 760,190 800,190" fill="#f1f5f9" />
    </g>
  

  <!-- ═══ KEY MONASTERY ═══ -->
  
    <g transform="translate(710, 190)">
      <!-- Main block -->
      <rect x="-8" y="12" width="85" height="50" rx="2" fill="#fafaf9" stroke="#e7e5e4" stroke-width="1" />
      <!-- Stacked Upper Blocks -->
      <rect x="10" y="-8" width="55" height="24" rx="2" fill="#f5f5f4" stroke="#e7e5e4" stroke-width="1" />
      <rect x="25" y="-24" width="30" height="18" rx="2" fill="#e7e5e4" stroke="#d6d3d1" stroke-width="0.8" />
      
      <!-- Flat Dark Red bands representing monastery parapets -->
      <rect x="-8" y="15" width="85" height="5" fill="#991b1b" />
      <rect x="10" y="-5" width="55" height="4" fill="#991b1b" />
      <rect x="25" y="-21" width="30" height="3" fill="#991b1b" />
      
      <!-- Gold Roof Spires -->
      <polygon points="40,-34 37,-24 43,-24" fill="#fbbf24" />
      <polygon points="18,-15 16,-8 20,-8" fill="#fbbf24" />
      <polygon points="62,-15 60,-8 64,-8" fill="#fbbf24" />
      
      <!-- Tiny windows -->
      <rect x="0" y="26" width="5" height="7" rx="0.5" fill="#292524" />
      <rect x="14" y="26" width="5" height="7" rx="0.5" fill="#292524" />
      <rect x="28" y="26" width="5" height="7" rx="0.5" fill="#292524" />
      <rect x="42" y="26" width="5" height="7" rx="0.5" fill="#292524" />
      <rect x="56" y="26" width="5" height="7" rx="0.5" fill="#292524" />
      <rect x="20" y="2" width="4" height="5" rx="0.5" fill="#292524" />
      <rect x="34" y="2" width="4" height="5" rx="0.5" fill="#292524" />
      <rect x="48" y="2" width="4" height="5" rx="0.5" fill="#292524" />
      
      <!-- Small prayer flags strung to the cliff -->
      <line x1="-30" y1="35" x2="-8" y2="25" stroke="#a8a29e" stroke-width="0.8" stroke-dasharray="2,2" />
      <polygon points="-24,32 -20,36 -20,30" fill="#3b82f6" />
      <polygon points="-17,29 -13,33 -13,27" fill="#ef4444" />
    </g>
  

  <!-- ═══ FOREGROUND FOREST & VEGETATION ═══ -->
  
    <g transform="translate(100, 390) scale(0.75)" class="pine">
      <!-- Trunk -->
      <rect x="-1" y="0" width="2" height="24" fill="#5c4033" />
      <!-- Slender Poplar Crown -->
      <path d="M 0,-56 C -11,-36 -9,-10 0,0 C 9,-10 11,-36 0,-56 Z" fill="#88A94D" fill-opacity="0.9" />
    </g>
  
    <g transform="translate(140, 400) scale(0.85)" class="pine-delay">
      <!-- Trunk -->
      <rect x="-1" y="0" width="2" height="24" fill="#5c4033" />
      <!-- Slender Poplar Crown -->
      <path d="M 0,-56 C -11,-36 -9,-10 0,0 C 9,-10 11,-36 0,-56 Z" fill="#88A94D" fill-opacity="0.9" />
    </g>
  
    <g transform="translate(800, 380) scale(0.75)" class="pine">
      <!-- Trunk -->
      <rect x="-1" y="0" width="2" height="24" fill="#5c4033" />
      <!-- Slender Poplar Crown -->
      <path d="M 0,-56 C -11,-36 -9,-10 0,0 C 9,-10 11,-36 0,-56 Z" fill="#88A94D" fill-opacity="0.9" />
    </g>
  
    <g transform="translate(860, 390) scale(0.9)" class="pine-delay">
      <!-- Trunk -->
      <rect x="-1" y="0" width="2" height="24" fill="#5c4033" />
      <!-- Slender Poplar Crown -->
      <path d="M 0,-56 C -11,-36 -9,-10 0,0 C 9,-10 11,-36 0,-56 Z" fill="#88A94D" fill-opacity="0.9" />
    </g>
  
    <g transform="translate(60, 720) scale(1)" class="pine-delay">
      <!-- Trunk -->
      <rect x="-1" y="0" width="2" height="24" fill="#5c4033" />
      <!-- Slender Poplar Crown -->
      <path d="M 0,-56 C -11,-36 -9,-10 0,0 C 9,-10 11,-36 0,-56 Z" fill="#88A94D" fill-opacity="0.9" />
    </g>
  
    <g transform="translate(910, 750) scale(1.15)" class="pine">
      <!-- Trunk -->
      <rect x="-1" y="0" width="2" height="24" fill="#5c4033" />
      <!-- Slender Poplar Crown -->
      <path d="M 0,-56 C -11,-36 -9,-10 0,0 C 9,-10 11,-36 0,-56 Z" fill="#88A94D" fill-opacity="0.9" />
    </g>
  
    <g transform="translate(80, 1020) scale(1.25)" class="pine">
      <!-- Trunk -->
      <rect x="-1" y="0" width="2" height="24" fill="#5c4033" />
      <!-- Slender Poplar Crown -->
      <path d="M 0,-56 C -11,-36 -9,-10 0,0 C 9,-10 11,-36 0,-56 Z" fill="#88A94D" fill-opacity="0.9" />
    </g>
  
    <g transform="translate(890, 1000) scale(1.3)" class="pine-delay">
      <!-- Trunk -->
      <rect x="-1" y="0" width="2" height="24" fill="#5c4033" />
      <!-- Slender Poplar Crown -->
      <path d="M 0,-56 C -11,-36 -9,-10 0,0 C 9,-10 11,-36 0,-56 Z" fill="#88A94D" fill-opacity="0.9" />
    </g>
  
  
    <g transform="translate(50, 440)">
      <path d="M0,0 Q-4,-12 -8,-15 Q-2,-12 0,0 Q3,-14 6,-18 Q2,-10 0,0 Q8,-10 12,-12 Q5,-8 0,0" fill="#88A94D" fill-opacity="0.8" />
    </g>
  
    <g transform="translate(280, 420)">
      <path d="M0,0 Q-4,-12 -8,-15 Q-2,-12 0,0 Q3,-14 6,-18 Q2,-10 0,0 Q8,-10 12,-12 Q5,-8 0,0" fill="#88A94D" fill-opacity="0.8" />
    </g>
  
    <g transform="translate(740, 460)">
      <path d="M0,0 Q-4,-12 -8,-15 Q-2,-12 0,0 Q3,-14 6,-18 Q2,-10 0,0 Q8,-10 12,-12 Q5,-8 0,0" fill="#88A94D" fill-opacity="0.8" />
    </g>
  
    <g transform="translate(120, 740)">
      <path d="M0,0 Q-4,-12 -8,-15 Q-2,-12 0,0 Q3,-14 6,-18 Q2,-10 0,0 Q8,-10 12,-12 Q5,-8 0,0" fill="#88A94D" fill-opacity="0.8" />
    </g>
  
    <g transform="translate(820, 770)">
      <path d="M0,0 Q-4,-12 -8,-15 Q-2,-12 0,0 Q3,-14 6,-18 Q2,-10 0,0 Q8,-10 12,-12 Q5,-8 0,0" fill="#88A94D" fill-opacity="0.8" />
    </g>
  
    <g transform="translate(180, 1040)">
      <path d="M0,0 Q-4,-12 -8,-15 Q-2,-12 0,0 Q3,-14 6,-18 Q2,-10 0,0 Q8,-10 12,-12 Q5,-8 0,0" fill="#88A94D" fill-opacity="0.8" />
    </g>
  
    <g transform="translate(790, 1020)">
      <path d="M0,0 Q-4,-12 -8,-15 Q-2,-12 0,0 Q3,-14 6,-18 Q2,-10 0,0 Q8,-10 12,-12 Q5,-8 0,0" fill="#88A94D" fill-opacity="0.8" />
    </g>
  

  <!-- ═══ BUDDHIST PRAYER FLAGS ═══ -->
  
    <g class="flags-wave" transform="translate(80, 210)">
      <path d="M 0,20 Q 100,45 200,30" fill="none" stroke="#78716c" stroke-width="1.2" opacity="0.75" />
      <!-- Small flag triangles -->
      <polygon points="20,24 28,34 32,26" fill="#3b82f6" />
      <polygon points="50,29 58,39 62,31" fill="#ffffff" />
      <polygon points="80,33 88,43 92,35" fill="#ef4444" />
      <polygon points="110,34 118,44 122,36" fill="#10b981" />
      <polygon points="140,32 148,42 152,34" fill="#fbbf24" />
      <polygon points="170,29 178,39 182,31" fill="#3b82f6" />
    </g>
  

  <!-- ═══ WEATHER PARTICLES ═══ -->
  <line class="raindrop" x1="30" y1="-25" x2="18" y2="10" stroke="#60a5fa" stroke-width="2.2" stroke-linecap="round" style="animation-delay: 0.0s; animation-duration: 1.2s;" opacity="0.6" /><line class="raindrop" x1="84" y1="-25" x2="72" y2="10" stroke="#60a5fa" stroke-width="2.2" stroke-linecap="round" style="animation-delay: 0.2s; animation-duration: 1.6s;" opacity="0.6" /><line class="raindrop" x1="138" y1="-25" x2="126" y2="10" stroke="#60a5fa" stroke-width="2.2" stroke-linecap="round" style="animation-delay: 0.4s; animation-duration: 2.0s;" opacity="0.6" /><line class="raindrop" x1="192" y1="-25" x2="180" y2="10" stroke="#60a5fa" stroke-width="2.2" stroke-linecap="round" style="animation-delay: 0.6s; animation-duration: 1.2s;" opacity="0.6" /><line class="raindrop" x1="246" y1="-25" x2="234" y2="10" stroke="#60a5fa" stroke-width="2.2" stroke-linecap="round" style="animation-delay: 0.8s; animation-duration: 1.6s;" opacity="0.6" /><line class="raindrop" x1="300" y1="-25" x2="288" y2="10" stroke="#60a5fa" stroke-width="2.2" stroke-linecap="round" style="animation-delay: 1.0s; animation-duration: 2.0s;" opacity="0.6" /><line class="raindrop" x1="354" y1="-25" x2="342" y2="10" stroke="#60a5fa" stroke-width="2.2" stroke-linecap="round" style="animation-delay: 1.2s; animation-duration: 1.2s;" opacity="0.6" /><line class="raindrop" x1="408" y1="-25" x2="396" y2="10" stroke="#60a5fa" stroke-width="2.2" stroke-linecap="round" style="animation-delay: 1.4s; animation-duration: 1.6s;" opacity="0.6" /><line class="raindrop" x1="462" y1="-25" x2="450" y2="10" stroke="#60a5fa" stroke-width="2.2" stroke-linecap="round" style="animation-delay: 1.6s; animation-duration: 2.0s;" opacity="0.6" /><line class="raindrop" x1="516" y1="-25" x2="504" y2="10" stroke="#60a5fa" stroke-width="2.2" stroke-linecap="round" style="animation-delay: 1.8s; animation-duration: 1.2s;" opacity="0.6" /><line class="raindrop" x1="570" y1="-25" x2="558" y2="10" stroke="#60a5fa" stroke-width="2.2" stroke-linecap="round" style="animation-delay: 2.0s; animation-duration: 1.6s;" opacity="0.6" /><line class="raindrop" x1="624" y1="-25" x2="612" y2="10" stroke="#60a5fa" stroke-width="2.2" stroke-linecap="round" style="animation-delay: 2.2s; animation-duration: 2.0s;" opacity="0.6" /><line class="raindrop" x1="678" y1="-25" x2="666" y2="10" stroke="#60a5fa" stroke-width="2.2" stroke-linecap="round" style="animation-delay: 2.4s; animation-duration: 1.2s;" opacity="0.6" /><line class="raindrop" x1="732" y1="-25" x2="720" y2="10" stroke="#60a5fa" stroke-width="2.2" stroke-linecap="round" style="animation-delay: 2.6s; animation-duration: 1.6s;" opacity="0.6" /><line class="raindrop" x1="786" y1="-25" x2="774" y2="10" stroke="#60a5fa" stroke-width="2.2" stroke-linecap="round" style="animation-delay: 2.8s; animation-duration: 2.0s;" opacity="0.6" /><line class="raindrop" x1="840" y1="-25" x2="828" y2="10" stroke="#60a5fa" stroke-width="2.2" stroke-linecap="round" style="animation-delay: 3.0s; animation-duration: 1.2s;" opacity="0.6" /><line class="raindrop" x1="894" y1="-25" x2="882" y2="10" stroke="#60a5fa" stroke-width="2.2" stroke-linecap="round" style="animation-delay: 3.2s; animation-duration: 1.6s;" opacity="0.6" /><line class="raindrop" x1="948" y1="-25" x2="936" y2="10" stroke="#60a5fa" stroke-width="2.2" stroke-linecap="round" style="animation-delay: 3.4s; animation-duration: 2.0s;" opacity="0.6" />

  <!-- ═══ SHORELINE TEXT MARQUEE ═══ -->
  
    <g class="marquee" transform="translate(0, 440)">
      <rect x="-10" y="0" width="980" height="32" fill="#ffffff" fill-opacity="0.25" style="backdrop-filter: blur(8px);" />
      <text font-family="'Space Grotesk', sans-serif" font-size="12.5" font-weight="800" fill="#0f172a" letter-spacing="1.5">
        🏔️ SPITI VALLEY · KEY MONASTERY OVERLOOK · COLD DESERT · GLACIAL STREAM · SPITI VALLEY · KEY MONASTERY OVERLOOK · COLD DESERT · GLACIAL STREAM
      </text>
    </g>
  

  <!-- ═══ ANIMATED BIRDS & DRIFTING CLOUDS ═══ -->
  <g class="floating-cloud">
    <rect x="0" y="45" width="130" height="22" rx="11" fill="#ffffff" fill-opacity="0.9" />
  </g>
  <g class="flying-bird">
    <path d="M 0,0 L 6,-5 L 12,0 L 18,-5 L 24,0" fill="none" stroke="#1e293b" stroke-width="2" stroke-linecap="round" />
  </g>
  <g class="flying-bird-delay">
    <path d="M 0,0 L 5,-4 L 10,0 L 15,-4 L 20,0" fill="none" stroke="#1e293b" stroke-width="1.8" stroke-linecap="round" />
  </g>

  <!-- ═══ HERO HEADER (Apple Glass style) ═══ -->
  <g transform="translate(180, 320)">
    <!-- Glassmorphic Main Box -->
    <rect x="0" y="0" width="600" height="120" rx="28" fill="#ffffff" fill-opacity="0.28" style="backdrop-filter: blur(14px);" stroke="#ffffff" stroke-opacity="0.2" stroke-width="1.2"/>
    
    <!-- Left accent pill stripe -->
    <rect x="4" y="4" width="8" height="112" rx="4" fill="#4EC7E8" fill-opacity="0.8" />

    <text x="310" y="55" font-family="'Space Grotesk', sans-serif" font-size="34" fill="#0f172a" text-anchor="middle" font-weight="900">HI, I'M DASMAT ⚡</text>
    <text x="310" y="88" font-family="'Inter', sans-serif" font-size="13" fill="#334155" font-weight="700" text-anchor="middle" letter-spacing="0.5">
      DEVOPS EXPLORER  ·  FULL-STACK DEVELOPER  ·  OSS CONTRIBUTOR
    </text>
  </g>

  <!-- ═══ ABOUT ME PANEL ═══ -->
  
<g class="panel">
  <!-- Card Main Box with Apple-style Frosted Glassmorphism -->
  <rect x="40" y="480" width="880" height="170" rx="28" fill="#ffffff" fill-opacity="0.28" style="backdrop-filter: blur(14px); -webkit-backdrop-filter: blur(14px);" stroke="#ffffff" stroke-opacity="0.3" stroke-width="1.2" />
  
  <!-- Badge Main (Soft rounded pill) -->
  <rect x="71" y="466" width="202.5" height="28" rx="14" fill="#4EC7E8" fill-opacity="0.85" />
  <text x="172.25" y="484" font-family="'Space Grotesk', sans-serif" font-size="11.5" fill="#ffffff" font-weight="900" text-anchor="middle" letter-spacing="1">⚡  ABOUT THE TRAVELER</text>
</g>
  <text x="70" y="530" font-family="'Inter', sans-serif" font-size="13" fill="#0f172a" font-weight="700">
    ⚡  <tspan font-weight="900" fill="#1e293b">CORE INTERESTS:</tspan> Infrastructure automation, Cloud-Native scaling, Self-healing architectures
  </text>
  <text x="70" y="575" font-family="'Inter', sans-serif" font-size="13" fill="#0f172a" font-weight="700">
    ⚡  <tspan font-weight="900" fill="#1e293b">CONTRIBUTING TO:</tspan> Kubernetes SIGs, Node.js Core, Express.js, Backstage Ecosystem
  </text>
  <text x="70" y="620" font-family="'Inter', sans-serif" font-size="13" fill="#0f172a" font-weight="700">
    ⚡  <tspan font-weight="900" fill="#1e293b">CONTACT:</tspan> dasmath06@gmail.com   ·   ⚡  Experiments daily with automated recovery pipelines
  </text>

  <!-- ═══ WORLD STATE BAR ═══ -->
  
<g class="panel">
  <!-- Card Main Box with Apple-style Frosted Glassmorphism -->
  <rect x="40" y="690" width="880" height="70" rx="28" fill="#ffffff" fill-opacity="0.28" style="backdrop-filter: blur(14px); -webkit-backdrop-filter: blur(14px);" stroke="#ffffff" stroke-opacity="0.3" stroke-width="1.2" />
  
  <!-- Badge Main (Soft rounded pill) -->
  <rect x="71" y="676" width="253.5" height="28" rx="14" fill="#4EC7E8" fill-opacity="0.85" />
  <text x="197.75" y="694" font-family="'Space Grotesk', sans-serif" font-size="11.5" fill="#ffffff" font-weight="900" text-anchor="middle" letter-spacing="1">🏡  CURRENT ENVIRONMENT LOG</text>
</g>
  <text x="480" y="732" font-family="'Space Grotesk', sans-serif" font-size="13.5" fill="#0f172a" text-anchor="middle" font-weight="900">
    🌳 BIOME: <tspan fill="#0f172a" font-weight="900">JS KINGDOM</tspan>
    <tspan dx="15" fill="#0f172a" opacity="0.25">|</tspan>
    <tspan dx="15">🕰️ TIME: <tspan fill="#0ea5e9">NIGHT</tspan></tspan>
    <tspan dx="15" fill="#0f172a" opacity="0.25">|</tspan>
    <tspan dx="15">🌦️ WEATHER: <tspan fill="#8b5cf6">RAIN</tspan></tspan>
    <tspan dx="15" fill="#0f172a" opacity="0.25">|</tspan>
    <tspan dx="15">🎒 STREAK: <tspan fill="#d97706">10 DAYS</tspan></tspan>
  </text>

  <!-- ═══ TECH STACK PANEL ═══ -->
  
<g class="panel">
  <!-- Card Main Box with Apple-style Frosted Glassmorphism -->
  <rect x="40" y="800" width="880" height="190" rx="28" fill="#ffffff" fill-opacity="0.28" style="backdrop-filter: blur(14px); -webkit-backdrop-filter: blur(14px);" stroke="#ffffff" stroke-opacity="0.3" stroke-width="1.2" />
  
  <!-- Badge Main (Soft rounded pill) -->
  <rect x="71" y="786" width="262" height="28" rx="14" fill="#4EC7E8" fill-opacity="0.85" />
  <text x="202" y="804" font-family="'Space Grotesk', sans-serif" font-size="11.5" fill="#ffffff" font-weight="900" text-anchor="middle" letter-spacing="1">🎒  PACKED GEAR (TECH STACK)</text>
</g>
  
    <g>
      <!-- Pill base -->
      <rect x="70" y="836" width="180" height="30" rx="15" fill="#22c55e" fill-opacity="0.15" stroke="#22c55e" stroke-opacity="0.3" stroke-width="1.2" />
      <text x="160" y="855" font-family="'Space Grotesk', sans-serif" font-size="11.5" fill="#0f172a" font-weight="900" text-anchor="middle">KUBERNETES</text>
    </g>
    
    <g>
      <!-- Pill base -->
      <rect x="280" y="836" width="180" height="30" rx="15" fill="#0ea5e9" fill-opacity="0.15" stroke="#0ea5e9" stroke-opacity="0.3" stroke-width="1.2" />
      <text x="370" y="855" font-family="'Space Grotesk', sans-serif" font-size="11.5" fill="#0f172a" font-weight="900" text-anchor="middle">DOCKER</text>
    </g>
    
    <g>
      <!-- Pill base -->
      <rect x="490" y="836" width="180" height="30" rx="15" fill="#ec4899" fill-opacity="0.15" stroke="#ec4899" stroke-opacity="0.3" stroke-width="1.2" />
      <text x="580" y="855" font-family="'Space Grotesk', sans-serif" font-size="11.5" fill="#0f172a" font-weight="900" text-anchor="middle">TYPESCRIPT</text>
    </g>
    
    <g>
      <!-- Pill base -->
      <rect x="700" y="836" width="180" height="30" rx="15" fill="#06b6d4" fill-opacity="0.15" stroke="#06b6d4" stroke-opacity="0.3" stroke-width="1.2" />
      <text x="790" y="855" font-family="'Space Grotesk', sans-serif" font-size="11.5" fill="#0f172a" font-weight="900" text-anchor="middle">GO</text>
    </g>
    
    <g>
      <!-- Pill base -->
      <rect x="70" y="896" width="180" height="30" rx="15" fill="#8b5cf6" fill-opacity="0.15" stroke="#8b5cf6" stroke-opacity="0.3" stroke-width="1.2" />
      <text x="160" y="915" font-family="'Space Grotesk', sans-serif" font-size="11.5" fill="#0f172a" font-weight="900" text-anchor="middle">NODE.JS</text>
    </g>
    
    <g>
      <!-- Pill base -->
      <rect x="280" y="896" width="180" height="30" rx="15" fill="#eab308" fill-opacity="0.15" stroke="#eab308" stroke-opacity="0.3" stroke-width="1.2" />
      <text x="370" y="915" font-family="'Space Grotesk', sans-serif" font-size="11.5" fill="#0f172a" font-weight="900" text-anchor="middle">TERRAFORM</text>
    </g>
    
    <g>
      <!-- Pill base -->
      <rect x="490" y="896" width="180" height="30" rx="15" fill="#f43f5e" fill-opacity="0.15" stroke="#f43f5e" stroke-opacity="0.3" stroke-width="1.2" />
      <text x="580" y="915" font-family="'Space Grotesk', sans-serif" font-size="11.5" fill="#0f172a" font-weight="900" text-anchor="middle">PYTHON</text>
    </g>
    
    <g>
      <!-- Pill base -->
      <rect x="700" y="896" width="180" height="30" rx="15" fill="#f97316" fill-opacity="0.15" stroke="#f97316" stroke-opacity="0.3" stroke-width="1.2" />
      <text x="790" y="915" font-family="'Space Grotesk', sans-serif" font-size="11.5" fill="#0f172a" font-weight="900" text-anchor="middle">AWS</text>
    </g>
    
    <g>
      <!-- Pill base -->
      <rect x="70" y="956" width="180" height="30" rx="15" fill="#64748b" fill-opacity="0.15" stroke="#64748b" stroke-opacity="0.3" stroke-width="1.2" />
      <text x="160" y="975" font-family="'Space Grotesk', sans-serif" font-size="11.5" fill="#0f172a" font-weight="900" text-anchor="middle">LINUX</text>
    </g>
    
    <g>
      <!-- Pill base -->
      <rect x="280" y="956" width="180" height="30" rx="15" fill="#ef4444" fill-opacity="0.15" stroke="#ef4444" stroke-opacity="0.3" stroke-width="1.2" />
      <text x="370" y="975" font-family="'Space Grotesk', sans-serif" font-size="11.5" fill="#0f172a" font-weight="900" text-anchor="middle">GRAFANA</text>
    </g>
    
    <g>
      <!-- Pill base -->
      <rect x="490" y="956" width="180" height="30" rx="15" fill="#f43f5e" fill-opacity="0.15" stroke="#f43f5e" stroke-opacity="0.3" stroke-width="1.2" />
      <text x="580" y="975" font-family="'Space Grotesk', sans-serif" font-size="11.5" fill="#0f172a" font-weight="900" text-anchor="middle">PROMETHEUS</text>
    </g>
    
    <g>
      <!-- Pill base -->
      <rect x="700" y="956" width="180" height="30" rx="15" fill="#14b8a6" fill-opacity="0.15" stroke="#14b8a6" stroke-opacity="0.3" stroke-width="1.2" />
      <text x="790" y="975" font-family="'Space Grotesk', sans-serif" font-size="11.5" fill="#0f172a" font-weight="900" text-anchor="middle">BACKSTAGE</text>
    </g>
    

  <!-- ═══ ACTIVE QUESTS PANEL ═══ -->
  
<g class="panel">
  <!-- Card Main Box with Apple-style Frosted Glassmorphism -->
  <rect x="40" y="1030" width="880" height="240" rx="28" fill="#ffffff" fill-opacity="0.28" style="backdrop-filter: blur(14px); -webkit-backdrop-filter: blur(14px);" stroke="#ffffff" stroke-opacity="0.3" stroke-width="1.2" />
  
  <!-- Badge Main (Soft rounded pill) -->
  <rect x="71" y="1016" width="330" height="28" rx="14" fill="#4EC7E8" fill-opacity="0.85" />
  <text x="236" y="1034" font-family="'Space Grotesk', sans-serif" font-size="11.5" fill="#ffffff" font-weight="900" text-anchor="middle" letter-spacing="1">🗺️  CURRENT JOURNEY (ACTIVE QUESTS)</text>
</g>
  
    <g transform="translate(60, 1084)">
      <!-- Bullet Circle -->
      <circle cx="6" cy="0" r="4.5" fill="#22c55e" />
      <text x="24" y="5" font-family="'Inter', sans-serif" font-size="13" fill="#0f172a" font-weight="700">
        LeaderWorkerSet topology-aware scheduling
      </text>
      
      <!-- Status pill badge -->
      <g transform="translate(680, -11)">
        <rect x="0" y="0" width="130" height="22" rx="11" fill="#22c55e" fill-opacity="0.15" stroke="#22c55e" stroke-opacity="0.3" stroke-width="1" />
        <text x="65" y="14" font-family="'Space Grotesk', sans-serif" font-size="9" fill="#0f172a" font-weight="900" text-anchor="middle" letter-spacing="0.5">
          ACTIVE JOURNEY 🌿
        </text>
      </g>
    </g>
    
    <g transform="translate(60, 1122)">
      <!-- Bullet Circle -->
      <circle cx="6" cy="0" r="4.5" fill="#22c55e" />
      <text x="24" y="5" font-family="'Inter', sans-serif" font-size="13" fill="#0f172a" font-weight="700">
        CompositePodGroup integration (KEP-893)
      </text>
      
      <!-- Status pill badge -->
      <g transform="translate(680, -11)">
        <rect x="0" y="0" width="130" height="22" rx="11" fill="#22c55e" fill-opacity="0.15" stroke="#22c55e" stroke-opacity="0.3" stroke-width="1" />
        <text x="65" y="14" font-family="'Space Grotesk', sans-serif" font-size="9" fill="#0f172a" font-weight="900" text-anchor="middle" letter-spacing="0.5">
          ACTIVE JOURNEY 🌿
        </text>
      </g>
    </g>
    
    <g transform="translate(60, 1160)">
      <!-- Bullet Circle -->
      <circle cx="6" cy="0" r="4.5" fill="#eab308" />
      <text x="24" y="5" font-family="'Inter', sans-serif" font-size="13" fill="#0f172a" font-weight="700">
        GitWorld Engine rendering pipeline core
      </text>
      
      <!-- Status pill badge -->
      <g transform="translate(680, -11)">
        <rect x="0" y="0" width="130" height="22" rx="11" fill="#eab308" fill-opacity="0.15" stroke="#eab308" stroke-opacity="0.3" stroke-width="1" />
        <text x="65" y="14" font-family="'Space Grotesk', sans-serif" font-size="9" fill="#0f172a" font-weight="900" text-anchor="middle" letter-spacing="0.5">
          COMPLETED 🏆
        </text>
      </g>
    </g>
    
    <g transform="translate(60, 1198)">
      <!-- Bullet Circle -->
      <circle cx="6" cy="0" r="4.5" fill="#eab308" />
      <text x="24" y="5" font-family="'Inter', sans-serif" font-size="13" fill="#0f172a" font-weight="700">
        Real-time automatic location weather sync
      </text>
      
      <!-- Status pill badge -->
      <g transform="translate(680, -11)">
        <rect x="0" y="0" width="130" height="22" rx="11" fill="#eab308" fill-opacity="0.15" stroke="#eab308" stroke-opacity="0.3" stroke-width="1" />
        <text x="65" y="14" font-family="'Space Grotesk', sans-serif" font-size="9" fill="#0f172a" font-weight="900" text-anchor="middle" letter-spacing="0.5">
          COMPLETED 🏆
        </text>
      </g>
    </g>
    
    <g transform="translate(60, 1236)">
      <!-- Bullet Circle -->
      <circle cx="6" cy="0" r="4.5" fill="#0ea5e9" />
      <text x="24" y="5" font-family="'Inter', sans-serif" font-size="13" fill="#0f172a" font-weight="700">
        Upstream Node.js core exploration
      </text>
      
      <!-- Status pill badge -->
      <g transform="translate(680, -11)">
        <rect x="0" y="0" width="130" height="22" rx="11" fill="#0ea5e9" fill-opacity="0.15" stroke="#0ea5e9" stroke-opacity="0.3" stroke-width="1" />
        <text x="65" y="14" font-family="'Space Grotesk', sans-serif" font-size="9" fill="#0f172a" font-weight="900" text-anchor="middle" letter-spacing="0.5">
          WANDERING 🏕️
        </text>
      </g>
    </g>
    

  <!-- ═══ STATS HUD ═══ -->
  
    <g>
      <!-- Glassmorphic stat card -->
      <rect x="60" y="1315" width="260" height="82" rx="18" fill="#ffffff" fill-opacity="0.28" style="backdrop-filter: blur(10px);" stroke="#ffffff" stroke-opacity="0.2" stroke-width="1.2" />
      <text x="76" y="1337" font-family="'Space Grotesk', sans-serif" font-size="9" fill="#334155" font-weight="900" letter-spacing="1">📝  TRAVEL STREAK</text>
      <text x="76" y="1363" font-family="'Space Grotesk', sans-serif" font-size="19" fill="#0f172a" font-weight="900">10 days</text>
      <text x="76" y="1383" font-family="'Inter', sans-serif" font-size="10" fill="#334155" font-weight="700" opacity="0.8">committed in a row</text>
    </g>
    
    <g>
      <!-- Glassmorphic stat card -->
      <rect x="350" y="1315" width="260" height="82" rx="18" fill="#ffffff" fill-opacity="0.28" style="backdrop-filter: blur(10px);" stroke="#ffffff" stroke-opacity="0.2" stroke-width="1.2" />
      <text x="366" y="1337" font-family="'Space Grotesk', sans-serif" font-size="9" fill="#334155" font-weight="900" letter-spacing="1">🌱  SPROUTS GROWN</text>
      <text x="366" y="1363" font-family="'Space Grotesk', sans-serif" font-size="19" fill="#0f172a" font-weight="900">423</text>
      <text x="366" y="1383" font-family="'Inter', sans-serif" font-size="10" fill="#334155" font-weight="700" opacity="0.8">total commits</text>
    </g>
    
    <g>
      <!-- Glassmorphic stat card -->
      <rect x="640" y="1315" width="260" height="82" rx="18" fill="#ffffff" fill-opacity="0.28" style="backdrop-filter: blur(10px);" stroke="#ffffff" stroke-opacity="0.2" stroke-width="1.2" />
      <text x="656" y="1337" font-family="'Space Grotesk', sans-serif" font-size="9" fill="#334155" font-weight="900" letter-spacing="1">🏡  HOME BIOME</text>
      <text x="656" y="1363" font-family="'Space Grotesk', sans-serif" font-size="19" fill="#0f172a" font-weight="900">JS KINGDOM</text>
      <text x="656" y="1383" font-family="'Inter', sans-serif" font-size="10" fill="#334155" font-weight="700" opacity="0.8">Weather: RAIN</text>
    </g>
    

  <!-- Soft bottom footer -->
  <text x="480" y="1428" font-family="'Space Grotesk', sans-serif" font-size="10.5" fill="#334155" font-weight="800" text-anchor="middle" letter-spacing="1">
    ⚡  HARVESTED DAILY BY GITWORLD ENGINE  ·  GITHUB.COM/DASMAT13/GIT-WORLD-ACTION  ⚡
  </text>

  <style>
    .sun {
      animation: pulse 4s ease-in-out infinite alternate;
      transform-origin: 480px 180px;
    }
    @keyframes pulse {
      from { transform: scale(0.96); }
      to   { transform: scale(1.04); }
    }
    .pine {
      animation: sway 3s ease-in-out infinite alternate;
      transform-origin: bottom center;
    }
    .pine-delay {
      animation: sway 4s ease-in-out infinite alternate;
      animation-delay: 1.5s;
      transform-origin: bottom center;
    }
    @keyframes sway {
      from { transform: rotate(1.2deg); }
      to   { transform: rotate(-1.2deg); }
    }
    .flags-wave {
      animation: flagSway 4s ease-in-out infinite alternate;
      transform-origin: left top;
    }
    @keyframes flagSway {
      0% { transform: translateY(0) rotate(0deg); }
      100% { transform: translateY(-2px) rotate(0.8deg); }
    }
    .twinkle {
      animation: twinkleAnim 2.5s ease-in-out infinite alternate;
    }
    @keyframes twinkleAnim {
      0% { opacity: 0.15; }
      100% { opacity: 0.95; }
    }
    .marquee text {
      offset-path: path("M 960 21 H -960");
      offset-distance: 0%;
      animation: slideText 18s linear infinite;
    }
    @keyframes slideText {
      to { offset-distance: 100%; }
    }
    .flying-bird {
      animation: birdFly 16s linear infinite;
    }
    .flying-bird-delay {
      animation: birdFly 22s linear infinite;
      animation-delay: 5s;
    }
    @keyframes birdFly {
      0% { transform: translate(-50px, 90px); }
      100% { transform: translate(1010px, 40px); }
    }
    .floating-cloud {
      animation: cloudFloat 28s linear infinite;
    }
    @keyframes cloudFloat {
      0% { transform: translateX(-150px); }
      100% { transform: translateX(1010px); }
    }
    
    /* Weather particle styles */
    .snow {
      animation: fallSnow 8s linear infinite;
    }
    .raindrop {
      animation: fallRain 2s linear infinite;
    }
    .dust {
      animation: fallDust 4s linear infinite;
    }
    @keyframes fallSnow {
      0%   { transform: translateY(0)  rotate(0deg); opacity:1; }
      100% { transform: translateY(1460px) rotate(360deg); opacity:0; }
    }
    @keyframes fallRain {
      0%   { transform: translateY(0) scaleY(1); opacity:0.8; }
      100% { transform: translateY(1460px) scaleY(1.5); opacity:0; }
    }
    @keyframes fallDust {
      0%   { transform: translateY(0) translateX(0) scale(0.8); opacity:0; }
      10%  { opacity: 0.65; }
      90%  { opacity: 0.65; }
      100% { transform: translateY(1460px) translateX(-200px) scale(1.2); opacity:0; }
    }
  </style>
</svg>